<svg width="462" height="410" viewBox="0 0 462 410" fill="none" xmlns="http://www.w3.org/2000/svg">
<g clip-path="url(#clip0_125_68)">
<path d="M31.7253 264.023L38.26 275.021C40.9236 279.504 47.6441 278.689 49.1593 273.7L50.389 269.65M50.389 269.65L35.8693 240.438M50.389 269.65L56.7169 253.008C57.1288 251.925 57.2182 250.745 56.9741 249.612L53.5686 233.8" stroke="#9001B4" stroke-width="5"/>
<path d="M29.5 358.5L23 385.5C23.1265 385.894 24.5 393.5 29.6952 404.847L36 409C36.9827 410.727 47.0189 408.842 49 409L54.5 404.847L57 401.5C60 392.015 59.9404 390.125 60 389.5L63.996 375.991L85.2044 327.155L101.294 326.44C101.676 326.423 102.054 326.37 102.425 326.281L125.64 320.721L135.283 354.07C136 356 137.998 362.374 138 363L140.5 377.5L143 392.015C143.226 395.543 145 398.5 149.5 402.5L156 403.5C157.381 403.28 162.577 402.551 163.5 401.5L169.5 397.555C172 392.015 171.797 386.861 172 386.5L171 371.5L174.52 330.137L196.363 299.915L221.176 267.97C221.563 267.471 222.028 267.036 222.552 266.681L241.766 253.681C244.802 251.627 248.957 252.834 250.42 256.195C250.617 256.648 250.756 257.124 250.834 257.612L254.571 281.1L250.42 302C250.512 302.58 248 311.5 248 316.5L247 326C247 327 248.468 334.081 248.5 334.5L251.5 346.5C251.557 347.262 260.364 348.424 261 348L270.5 339C270.726 338.85 278.753 327.613 279 327.5L293.92 289C296.106 288.004 303.122 268.627 303.5 271C303.591 271.573 307 279.5 299 322.5L295 337.5C294.765 338.212 295.26 352.617 296 352.5L299 359.5C303 367.5 307.403 367.822 308 367.5L319.5 366C328 362.5 331.445 355.729 332 354.735L335.5 332L343.071 272.749L347 261L368.224 243L365.059 218.622L391.638 207.5L376.196 179.52C376.37 178.91 376.639 178.331 376.994 177.805L398 171L391.638 156.123L407.5 147.5L403.483 133.737C403.681 133.364 403.838 132.971 403.953 132.565L417 120.839L411.997 104.166L426 95.5L418.65 81.4165C418.899 80.564 418.956 79.6668 418.817 78.7895L428 64.2388L413.644 46.2813C413.577 45.8621 413.466 45.4511 413.313 45.0553L417 36.6349L405.863 25.8389C405.413 24.6797 404.615 23.6886 403.578 23.0029L402.5 0.500167C401.737 -0.00453336 383.739 10.137 382.832 10.0196L375 0.500167C374.431 0.426567 360.742 7.24581 360.176 7.33598L350.5 1.5C349.07 1.72764 344.152 10.4164 343.222 11.5276H328.5C327.532 12.6855 336.412 20.5584 336.486 22.066L321.5 31L337.207 36.6349C337.243 37.3583 329.211 48.3359 329.5 49L343.182 51.3289C343.383 51.7896 337.403 59.1035 337.711 59.5L352.995 64.2388C353.271 64.593 350.31 74.5934 350.5 75L360.656 80.269C360.813 80.606 343.856 89.6399 343.949 90.0002L368.224 109.315C368.517 110.453 368.468 111.653 368.085 112.764L352.995 124.5L358.285 141.173C358.072 141.791 357.334 142.042 356.788 141.681L337.711 129.067C337.176 128.714 336.589 128.448 335.97 128.281L329.5 104.166L308.488 120.839C308.176 120.754 307.858 120.695 307.537 120.662L301 83.0002L279.697 117.782C279.177 117.728 262.516 117.743 262 117.825L241.766 100L233 128.281L214.583 131.688C214.222 131.793 189.835 117.655 189.5 117.825L187.041 145.554C186.774 145.69 186.518 145.845 186.274 146.019L156.5 141.173L147 177.805L137.5 172L129 190.5L115.625 201.954L121.843 178.994L103.219 195.331L86.5001 199.5L84.5957 211.668L62.0001 210L63.9961 234.665C63.7593 234.93 63.5465 235.214 63.36 235.516L48.3138 259.886C48.0676 260.285 47.869 260.711 47.722 261.156L41.6145 279.641C41.3937 280.309 41.2922 281.011 41.3147 281.715L42.7684 327.221L35 345C35.0481 345.302 31.5 354 29.5 358.5Z" fill="#9001B4" stroke="#9001B4"/>
<path d="M155.985 238.574L140.299 249.51C139.601 249.997 138.99 250.637 138.503 251.393L129.882 264.772C129.182 265.858 128.758 267.148 128.656 268.498L127.921 278.348C127.835 279.507 127.989 280.671 128.371 281.746L129.826 285.836C130.158 286.77 130.655 287.615 131.285 288.315L134.407 291.782C135.442 292.933 136.786 293.638 138.217 293.78L158.473 295.798C159.087 295.859 159.705 295.815 160.309 295.667L174.883 292.108C175.685 291.913 176.446 291.537 177.124 291.002L195.997 276.12C196.519 275.708 196.984 275.208 197.377 274.636L205.947 262.172C206.718 261.051 207.185 259.692 207.293 258.264L208.025 248.46C208.16 246.643 207.702 244.835 206.741 243.391L202.244 236.638C201.353 235.299 200.086 234.362 198.662 233.987L187.643 231.092C187.081 230.944 186.505 230.887 185.929 230.921L173.293 231.677C172.692 231.712 172.099 231.848 171.531 232.079L157.142 237.943C156.738 238.107 156.351 238.319 155.985 238.574Z" fill="#B7B7B7"/>
<path d="M72.2944 248.626L60.1695 258.767C59.6745 259.181 59.265 259.654 58.9564 260.172L53.6592 269.042C53.0695 270.03 52.8689 271.137 53.0839 272.218L54.4986 279.326C54.6681 280.177 55.0904 280.985 55.7303 281.68L57.4204 283.514C58.4413 284.623 59.9531 285.378 61.6469 285.625L70.4657 286.912C71.217 287.022 71.9862 287.028 72.7405 286.933L90.9497 284.616C91.7733 284.512 92.5656 284.286 93.2864 283.95L106.58 277.764C107.159 277.494 107.685 277.157 108.14 276.765L121.787 264.974C122.342 264.495 122.783 263.938 123.091 263.332L127.506 254.612C127.968 253.701 128.109 252.707 127.916 251.736L125.854 241.374C125.65 240.348 125.079 239.39 124.211 238.616L121.044 235.795C119.623 234.527 117.538 233.871 115.417 234.021L104.37 234.808C103.755 234.851 103.151 234.962 102.575 235.136L89.5507 239.084C89.0317 239.24 88.5389 239.448 88.0834 239.702L73.316 247.927C72.9472 248.132 72.605 248.366 72.2944 248.626Z" fill="#B7B7B7"/>
<path d="M74.6992 250.789L64.3152 259.473C63.8186 259.887 63.4065 260.365 63.0942 260.886L58.6801 268.244C58.075 269.252 57.8666 270.389 58.0834 271.497L59.1947 277.181C59.3659 278.056 59.7962 278.884 60.4485 279.594L61.5374 280.778C62.5591 281.89 64.0628 282.643 65.7425 282.885L72.9279 283.917C73.662 284.022 74.4126 284.028 75.1488 283.932L90.6813 281.921C91.4855 281.816 92.2596 281.594 92.9658 281.264L104.284 275.98C104.855 275.713 105.375 275.379 105.827 274.989L117.496 264.912C118.054 264.429 118.499 263.869 118.811 263.257L122.488 256.035C122.964 255.104 123.111 254.083 122.917 253.086L121.257 244.598C121.052 243.545 120.47 242.563 119.587 241.775L117.348 239.779C115.935 238.519 113.878 237.868 111.79 238.022L102.704 238.69C102.105 238.734 101.516 238.843 100.953 239.015L89.8331 242.407C89.3245 242.562 88.8409 242.767 88.393 243.017L75.7121 250.095C75.3471 250.299 75.0078 250.532 74.6992 250.789Z" fill="black"/>
<path d="M155.014 244.49L141.958 253.699C141.391 254.099 140.884 254.6 140.454 255.183L133.7 264.361C132.859 265.504 132.348 266.921 132.237 268.416L131.607 276.911C131.519 278.092 131.685 279.281 132.089 280.372L132.943 282.676C133.568 284.362 134.725 285.711 136.179 286.449L143.327 290.084C143.955 290.404 144.625 290.602 145.31 290.67L161.578 292.301C162.325 292.376 163.078 292.295 163.801 292.063L176.841 287.862C177.428 287.672 177.989 287.385 178.505 287.009L193.292 276.199C193.933 275.73 194.495 275.13 194.95 274.428L200.916 265.229C201.616 264.149 202.04 262.864 202.139 261.52L203.071 248.965C203.176 247.544 202.915 246.118 202.32 244.868L200.49 241.026C199.554 239.057 197.878 237.703 195.957 237.36L186.325 235.64C185.778 235.542 185.222 235.53 184.672 235.601L172.436 237.183C171.937 237.248 171.447 237.381 170.978 237.581L156.12 243.874C155.734 244.037 155.364 244.243 155.014 244.49Z" fill="black"/>
</g>
<defs>
<clipPath id="clip0_125_68">
<rect width="462" height="410" fill="white"/>
</clipPath>
</defs>
</svg>
