<svg width="462" height="410" viewBox="0 0 462 410" fill="none" xmlns="http://www.w3.org/2000/svg">
<path d="M31.7253 264.023L38.26 275.021C40.9236 279.504 47.6441 278.689 49.1593 273.7L50.389 269.65M50.389 269.65L35.8693 240.438M50.389 269.65L56.7169 253.008C57.1288 251.925 57.2182 250.745 56.9741 249.612L53.5686 233.8" stroke="#9001B4" stroke-width="5"/>
<path d="M47.0595 353.745L60.436 395.43C60.5625 395.824 60.7294 396.204 60.934 396.564L64.5369 402.897C65.5196 404.624 67.294 405.753 69.2751 405.911L74.1064 406.296L79.5043 393.829C79.754 393.253 79.9116 392.64 79.9712 392.015L81.3602 377.44L85.2043 327.155L101.294 326.44C101.676 326.423 102.054 326.37 102.425 326.281L125.64 320.721L114.082 357.05C113.892 357.646 113.797 358.268 113.799 358.894L113.872 377.042L114.786 391.269C115.012 394.797 118.225 397.365 121.716 396.809L130.4 395.428C131.781 395.208 133.043 394.512 133.966 393.461L137.977 388.893C138.25 388.582 138.49 388.244 138.693 387.883L146.088 374.782L174.52 330.137L196.363 299.915L221.176 267.97C221.563 267.471 222.028 267.036 222.552 266.681L241.766 253.681C244.802 251.627 248.957 252.834 250.42 256.195C250.617 256.648 250.756 257.124 250.834 257.612L254.571 281.1L258.287 304.449C258.379 305.029 258.386 305.618 258.307 306.199L255.33 328.128C255.273 328.545 255.26 328.967 255.292 329.386L256.897 350.648C256.954 351.41 257.812 351.829 258.448 351.405L273.644 341.283C273.87 341.133 274.107 341.001 274.354 340.888L276.079 340.102C278.265 339.106 280.799 340.466 281.177 342.839C281.268 343.412 281.22 343.999 281.038 344.55L277.167 356.267C276.932 356.979 277.534 357.686 278.274 357.569L292.006 355.383C292.676 355.277 293.323 355.057 293.92 354.735L301.483 350.64C302.484 350.098 303.31 349.283 303.865 348.289L315.306 327.795L343.071 272.749L365.059 218.622L376.196 179.52C376.37 178.91 376.639 178.331 376.994 177.805L391.638 156.123L403.483 133.737C403.681 133.364 403.838 132.971 403.953 132.565L411.997 104.166L418.65 81.4164C418.899 80.5639 418.956 79.6666 418.817 78.7893L413.644 46.2811C413.577 45.8619 413.466 45.4509 413.313 45.0551L405.863 25.8388C405.413 24.6796 404.615 23.6885 403.578 23.0028L385.371 10.965C384.608 10.4603 383.739 10.1369 382.832 10.0195L361.888 7.31084C361.319 7.23724 360.742 7.24566 360.176 7.33583L346.882 9.45119C345.452 9.67883 344.152 10.4163 343.222 11.5275L337.876 17.9201C336.908 19.078 336.412 20.5583 336.486 22.0659L337.207 36.6347C337.243 37.3581 337.41 38.0691 337.699 38.7332L343.182 51.3287C343.383 51.7894 343.641 52.223 343.949 52.6195L352.995 64.2387C353.271 64.5929 353.506 64.9769 353.696 65.3835L360.656 80.2688C360.813 80.6058 360.939 80.9567 361.032 81.317L368.224 109.315C368.517 110.453 368.468 111.653 368.085 112.764L358.285 141.173C358.072 141.791 357.334 142.042 356.788 141.681L337.711 129.067C337.176 128.714 336.589 128.448 335.97 128.281L308.488 120.839C308.176 120.754 307.858 120.695 307.537 120.662L279.697 117.782C279.177 117.728 278.653 117.743 278.137 117.825L243.292 123.37L214.583 131.688C214.222 131.793 213.871 131.931 213.536 132.101L187.041 145.554C186.774 145.69 186.518 145.845 186.274 146.019L155.612 167.889L115.625 201.954L121.843 178.994L84.5956 211.668L63.996 234.665C63.7592 234.93 63.5464 235.214 63.3599 235.516L48.3137 259.886C48.0675 260.285 47.8689 260.711 47.7219 261.156L41.6144 279.641C41.3936 280.309 41.2921 281.011 41.3146 281.715L42.7683 327.221L46.8471 352.854C46.8952 353.156 46.9662 353.454 47.0595 353.745Z" fill="#9001B4" stroke="#9001B4"/>
<path d="M47.0595 353.745L60.436 395.43C60.5625 395.824 60.7294 396.204 60.934 396.564L64.5369 402.897C65.5196 404.624 67.294 405.753 69.2751 405.911L74.1064 406.296L79.5043 393.829C79.754 393.253 79.9116 392.64 79.9712 392.015L81.3602 377.44L85.2043 327.155L101.294 326.44C101.676 326.423 102.054 326.37 102.425 326.281L125.64 320.721L114.082 357.05C113.892 357.646 113.797 358.268 113.799 358.894L113.872 377.042L114.786 391.269C115.012 394.797 118.225 397.365 121.716 396.809L130.4 395.428C131.781 395.208 133.043 394.512 133.966 393.461L137.977 388.893C138.25 388.582 138.49 388.244 138.693 387.883L146.088 374.782L174.52 330.137L196.363 299.915L221.176 267.97C221.563 267.471 222.028 267.036 222.552 266.681L241.766 253.681C244.802 251.627 248.957 252.834 250.42 256.195C250.617 256.648 250.756 257.124 250.834 257.612L254.571 281.1L258.287 304.449C258.379 305.029 258.386 305.618 258.307 306.199L255.33 328.128C255.273 328.545 255.26 328.967 255.292 329.386L256.897 350.648C256.954 351.41 257.812 351.829 258.448 351.405L273.644 341.283C273.87 341.133 274.107 341.001 274.354 340.888L276.079 340.102C278.265 339.106 280.799 340.466 281.177 342.839C281.268 343.412 281.22 343.999 281.038 344.55L277.167 356.267C276.932 356.979 277.534 357.686 278.274 357.569L292.006 355.383C292.676 355.277 293.323 355.057 293.92 354.735L301.483 350.64C302.484 350.098 303.31 349.283 303.865 348.289L315.306 327.795L343.071 272.749L365.059 218.622L376.196 179.52C376.37 178.91 376.639 178.331 376.994 177.805L391.638 156.123L403.483 133.737C403.681 133.364 403.838 132.971 403.953 132.565L411.997 104.166L418.65 81.4164C418.899 80.5639 418.956 79.6666 418.817 78.7893L413.644 46.2811C413.577 45.8619 413.466 45.4509 413.313 45.0551L405.863 25.8388C405.413 24.6796 404.615 23.6885 403.578 23.0028L385.371 10.965C384.608 10.4603 383.739 10.1369 382.832 10.0195L361.888 7.31084C361.319 7.23724 360.742 7.24566 360.176 7.33583L346.882 9.45119C345.452 9.67883 344.152 10.4163 343.222 11.5275L337.876 17.9201C336.908 19.078 336.412 20.5583 336.486 22.0659L337.207 36.6347C337.243 37.3581 337.41 38.0691 337.699 38.7332L343.182 51.3287C343.383 51.7894 343.641 52.223 343.949 52.6195L352.995 64.2387C353.271 64.5929 353.506 64.9769 353.696 65.3835L360.656 80.2688C360.813 80.6058 360.939 80.9567 361.032 81.317L368.224 109.315C368.517 110.453 368.468 111.653 368.085 112.764L358.285 141.173C358.072 141.791 357.334 142.042 356.788 141.681L337.711 129.067C337.176 128.714 336.589 128.448 335.97 128.281L308.488 120.839C308.176 120.754 307.858 120.695 307.537 120.662L279.697 117.782C279.177 117.728 278.653 117.743 278.137 117.825L243.292 123.37L214.583 131.688C214.222 131.793 213.871 131.931 213.536 132.101L187.041 145.554C186.774 145.69 186.518 145.845 186.274 146.019L155.612 167.889L115.625 201.954L121.843 178.994L84.5956 211.668L63.996 234.665C63.7592 234.93 63.5464 235.214 63.3599 235.516L48.3137 259.886C48.0675 260.285 47.8689 260.711 47.7219 261.156L41.6144 279.641C41.3936 280.309 41.2921 281.011 41.3146 281.715L42.7683 327.221L46.8471 352.854C46.8952 353.156 46.9662 353.454 47.0595 353.745Z" fill="#9001B4" stroke="#9001B4"/>
<path d="M143.935 246.533L131.577 258.897C131.027 259.447 130.589 260.1 130.288 260.817L124.964 273.508C124.532 274.538 124.396 275.668 124.571 276.772L125.852 284.823C126.003 285.77 126.378 286.666 126.946 287.438L129.11 290.376C129.604 291.047 130.233 291.608 130.956 292.023L134.54 294.079C135.729 294.761 137.115 295.016 138.469 294.8L157.644 291.749C158.225 291.657 158.789 291.479 159.319 291.222L172.116 285.017C172.821 284.676 173.451 284.2 173.973 283.616L188.498 267.361C188.899 266.911 189.231 266.404 189.481 265.856L194.94 253.909C195.431 252.834 195.593 251.639 195.408 250.472L194.133 242.458C193.896 240.973 193.111 239.632 191.933 238.698L186.42 234.33C185.327 233.464 183.966 233.006 182.572 233.034L171.783 233.255C171.233 233.266 170.687 233.353 170.16 233.513L158.601 237.028C158.051 237.195 157.528 237.44 157.048 237.756L144.881 245.762C144.54 245.986 144.223 246.245 143.935 246.533Z" fill="#B7B7B7"/>
<path d="M70.6321 244.826L59.8629 256.091C59.4232 256.551 59.0595 257.077 58.7854 257.652L54.0805 267.506C53.5567 268.603 53.3785 269.833 53.5695 271.034L54.826 278.93C54.9766 279.876 55.3517 280.773 55.92 281.545L57.4211 283.583C58.3279 284.815 59.6707 285.653 61.1751 285.928L69.0079 287.358C69.6752 287.48 70.3584 287.487 71.0283 287.381L87.2016 284.807C87.9331 284.691 88.6368 284.44 89.277 284.067L101.084 277.195C101.599 276.895 102.066 276.521 102.47 276.085L114.591 262.987C115.084 262.454 115.476 261.836 115.749 261.163L119.671 251.475C120.081 250.463 120.206 249.359 120.035 248.281L118.203 236.769C118.022 235.629 117.515 234.565 116.744 233.705L113.931 230.571C112.669 229.163 110.817 228.434 108.933 228.601L99.121 229.475C98.5753 229.523 98.0389 229.646 97.5267 229.84L85.959 234.225C85.498 234.399 85.0603 234.63 84.6558 234.912L71.5395 244.049C71.2119 244.277 70.908 244.537 70.6321 244.826Z" fill="#B7B7B7"/>
<path d="M74.0174 246.961L64.9779 255.979C64.5289 256.427 64.1549 256.944 63.87 257.51L60.0874 265.033C59.5235 266.155 59.3298 267.428 59.5337 268.672L60.4637 274.347C60.625 275.331 61.0295 276.262 61.6407 277.055L62.4694 278.131C63.4002 279.339 64.7527 280.153 66.254 280.411L72.478 281.478C73.1199 281.588 73.7746 281.593 74.4164 281.494L87.9894 279.397C88.6907 279.289 89.3661 279.057 89.9842 278.713L99.86 273.211C100.366 272.929 100.827 272.575 101.23 272.16L111.383 261.699C111.889 261.178 112.294 260.568 112.58 259.9L115.728 252.524C116.172 251.485 116.31 250.34 116.126 249.221L114.719 240.631C114.525 239.449 113.981 238.348 113.156 237.47L111.341 235.54C110.067 234.185 108.242 233.487 106.396 233.648L98.4873 234.342C97.9657 234.388 97.453 234.501 96.9621 234.68L87.2481 238.215C86.8025 238.377 86.3783 238.592 85.9843 238.854L74.9184 246.224C74.5945 246.439 74.2927 246.686 74.0174 246.961Z" fill="black"/>
<path d="M144.022 251.336L133.986 261.22C133.534 261.665 133.157 262.18 132.868 262.745L128.598 271.102C128.021 272.231 127.821 273.518 128.027 274.775L129.073 281.157C129.237 282.153 129.649 283.094 130.271 283.892L131.374 285.308C132.31 286.508 133.663 287.314 135.162 287.565L142.317 288.762C142.951 288.868 143.597 288.872 144.231 288.775L159.34 286.44C160.032 286.333 160.7 286.106 161.312 285.768L172.332 279.692C172.835 279.415 173.295 279.066 173.698 278.657L184.984 267.177C185.494 266.659 185.904 266.051 186.193 265.384L189.752 257.188C190.206 256.141 190.349 254.983 190.164 253.851L188.6 244.307C188.404 243.111 187.85 242 187.011 241.118L184.74 238.731C183.465 237.392 181.65 236.705 179.815 236.868L170.753 237.67C170.238 237.716 169.732 237.828 169.247 238.003L158.436 241.906C157.994 242.065 157.574 242.276 157.183 242.534L144.921 250.609C144.598 250.822 144.297 251.065 144.022 251.336Z" fill="black"/>
</svg>
