<svg width="1106" height="270" viewBox="0 0 1106 270" fill="none" xmlns="http://www.w3.org/2000/svg">
<path d="M645.639 233.166L645 247.485L647.827 255.582L655.641 259.119L676.324 260.041L705.745 257.572L732.507 251.084L750.228 242.108L826.597 245.513L825.959 259.833L830.448 266.41L843.105 268.568L864.002 264.717L878.463 262.174L898.052 251.888L977.888 249.071L1002.04 243.771L1021.63 233.485L1040.72 234.337L1056.84 230.273L1079.47 223.311L1097.4 214.546L1104.47 198.919L1104.83 190.964L1096.06 173.037L1090.05 164.798L1079.13 159.528L1066.4 158.96L1048.61 164.544L1034.01 170.27L1031.96 144.671L1029.77 122.255L1023.31 88.4876L1011.65 64.0544L994.925 45.7726L974.596 36.895L958.615 37.7766L939.238 43.2893L924.635 49.0149L925.557 28.3314L924.605 13.9411L920.399 0.999999L910.428 10.1205L901.976 20.903L890.058 37.9078L831.189 35.2827L786.499 36.4782L764.082 38.667L764.934 19.5745L762.39 5.1132L752.418 14.2338L738.767 34.3497L726.211 65.6739L717.191 89.1847L715.134 135.325L708.901 203.598L679.789 210.39L652.57 220.721L645.639 233.166Z" fill="#9001B4" stroke="#9001B4"/>
<path d="M691.135 78.3697L727.018 101.8C729.598 103.485 730.482 106.85 729.064 109.586L722.668 121.924M722.668 121.924L680.018 99.8155M722.668 121.924L718.735 129.511C717.544 131.81 715.012 133.085 712.456 132.674L676.156 126.837" stroke="#9001B4" stroke-width="4"/>
<path d="M731.309 82.2626L744.434 68.9249C744.961 68.3898 745.584 67.9582 746.27 67.6526L757.569 62.619C758.017 62.4194 758.488 62.2755 758.971 62.1905L772.056 59.889C772.488 59.8132 772.926 59.7848 773.363 59.8043L790.079 60.5497C791.202 60.5998 792.289 60.9646 793.215 61.6024L803.415 68.6285C803.916 68.9736 804.362 69.3928 804.737 69.8719L813.221 80.7121L819.633 90.5912C820.313 91.6402 820.649 92.8762 820.594 94.1252L820.044 106.454C819.995 107.54 819.653 108.593 819.052 109.5L810.202 122.862C809.879 123.351 809.485 123.789 809.034 124.164L792.426 137.962C791.817 138.468 791.113 138.849 790.356 139.082L769.623 145.46C769.126 145.613 768.611 145.701 768.09 145.721L751.99 146.343C750.522 146.399 749.083 145.915 747.948 144.982L732.556 132.328C731.706 131.629 731.064 130.71 730.701 129.671L725.982 116.156C725.731 115.436 725.619 114.674 725.653 113.911L726.353 98.2222C726.372 97.7852 726.439 97.3512 726.553 96.9282L729.792 84.9099C730.061 83.9115 730.584 82.9996 731.309 82.2626Z" fill="#B7B7B7"/>
<path d="M732.871 98.6522L736.283 84.8235C736.471 84.0627 736.806 83.3459 737.27 82.7139L739.253 80.0078C739.722 79.3689 740.312 78.8291 740.99 78.4194L749.792 73.1015L763.075 66.4786C763.988 66.0236 765.001 65.8087 766.02 65.8541L782.287 66.5795C783.126 66.6169 783.947 66.8299 784.698 67.2047L796.412 73.0487C797.191 73.4375 797.876 73.9913 798.42 74.6716L807.411 85.9209C807.908 86.5433 808.277 87.2586 808.495 88.025L811.752 99.4722C812.107 100.721 812.048 102.051 811.583 103.263L805.679 118.653C805.289 119.668 804.631 120.559 803.775 121.229L794.102 128.799C793.716 129.101 793.294 129.355 792.846 129.555L778.289 136.039C777.606 136.344 776.872 136.518 776.124 136.552L760.842 137.257C760.076 137.292 759.311 137.181 758.587 136.928L745.184 132.247C744.394 131.97 743.67 131.532 743.059 130.959L735.101 123.498C733.932 122.402 733.25 120.883 733.207 119.281L732.698 100.25C732.684 99.7122 732.742 99.1752 732.871 98.6522Z" fill="black"/>
<path d="M838.456 100.232L858.456 110.732H897.956L920.456 100.232" stroke="black" stroke-width="4"/>
<path d="M1.63855 233.166L1 247.485L3.82733 255.582L11.6406 259.119L32.3241 260.041L61.7451 257.572L88.5071 251.084L106.227 242.108L182.597 245.513L181.959 259.833L186.448 266.41L199.105 268.568L220.002 264.717L234.463 262.174L254.052 251.888L333.888 249.071L358.037 243.771L377.626 233.485L396.719 234.337L412.842 230.273L435.471 223.311L453.399 214.546L460.472 198.919L460.827 190.964L452.061 173.037L446.052 164.798L435.127 159.528L422.399 158.96L404.614 164.544L390.011 170.27L387.964 144.671L385.775 122.255L379.31 88.4876L367.646 64.0544L350.925 45.7726L330.596 36.895L314.615 37.7766L295.238 43.2893L280.635 49.0149L281.557 28.3314L280.605 13.9411L276.399 0.999999L266.428 10.1205L257.976 20.903L246.058 37.9078L187.189 35.2827L142.499 36.4782L120.082 38.667L120.934 19.5745L118.39 5.1132L108.418 14.2338L94.7671 34.3497L82.2109 65.6739L73.1913 89.1847L71.1338 135.325L64.9009 203.598L35.7889 210.39L8.5703 220.721L1.63855 233.166Z" fill="#9001B4" stroke="#9001B4"/>
<path d="M26.3301 96.3955L68.7368 102.579C71.7858 103.024 74.0024 105.706 73.8651 108.784L73.246 122.668M73.246 122.668L25.2539 120.528M73.246 122.668L72.8653 131.205C72.75 133.792 70.9885 136.013 68.4962 136.714L33.1046 146.671" stroke="#9001B4" stroke-width="4"/>
<path d="M87.3088 82.2626L100.434 68.9249C100.961 68.3898 101.583 67.9582 102.269 67.6526L113.568 62.619C114.016 62.4194 114.487 62.2755 114.97 62.1905L128.056 59.889C128.487 59.8132 128.925 59.7848 129.362 59.8043L146.078 60.5497C147.201 60.5998 148.288 60.9646 149.214 61.6024L159.414 68.6285C159.915 68.9736 160.361 69.3928 160.736 69.8719L169.22 80.7121L175.632 90.5912C176.312 91.6402 176.649 92.8762 176.593 94.1252L176.043 106.454C175.995 107.54 175.652 108.593 175.051 109.5L166.201 122.862C165.878 123.351 165.484 123.789 165.033 124.164L148.425 137.962C147.816 138.468 147.112 138.849 146.355 139.082L125.622 145.46C125.125 145.613 124.61 145.701 124.09 145.721L107.989 146.343C106.521 146.399 105.083 145.915 103.947 144.982L88.5557 132.328C87.7057 131.629 87.0642 130.71 86.7014 129.671L81.9823 116.156C81.7307 115.436 81.6189 114.674 81.6529 113.911L82.3525 98.2222C82.372 97.7852 82.4393 97.3512 82.5532 96.9282L85.792 84.9099C86.0611 83.9115 86.5836 82.9996 87.3088 82.2626Z" fill="#B7B7B7"/>
<path d="M88.8705 98.6522L92.2835 84.8235C92.4713 84.0627 92.8062 83.3459 93.2695 82.7139L95.2533 80.0078C95.7216 79.3689 96.3118 78.8291 96.9898 78.4194L105.792 73.1015L119.075 66.4786C119.988 66.0236 121.001 65.8087 122.02 65.8541L138.287 66.5795C139.126 66.6169 139.947 66.8299 140.698 67.2047L152.412 73.0487C153.191 73.4375 153.876 73.9913 154.42 74.6716L163.411 85.9209C163.908 86.5433 164.276 87.2586 164.495 88.025L167.751 99.4722C168.107 100.721 168.047 102.051 167.582 103.263L161.678 118.653C161.289 119.668 160.631 120.559 159.774 121.229L150.102 128.799C149.716 129.101 149.294 129.355 148.846 129.555L134.289 136.039C133.606 136.344 132.872 136.518 132.124 136.552L116.842 137.257C116.076 137.292 115.311 137.181 114.587 136.928L101.184 132.247C100.394 131.97 99.67 131.532 99.0591 130.959L91.101 123.498C89.9319 122.402 89.2499 120.883 89.207 119.281L88.6979 100.25C88.6835 99.7122 88.7416 99.1752 88.8705 98.6522Z" fill="black"/>
<path d="M283.719 87.0945L282.807 107.554C282.746 108.934 282.21 110.25 281.29 111.281L271.48 122.273L261.628 132.254C261.32 132.566 260.979 132.843 260.612 133.08L245.89 142.584C245.372 142.918 244.806 143.17 244.211 143.332L231.736 146.727C230.619 147.031 229.438 147.005 228.335 146.653L216.711 142.94C216.159 142.764 215.635 142.508 215.156 142.181L204.276 134.76C203.615 134.309 203.051 133.73 202.616 133.057L195.538 122.092C194.948 121.178 194.618 120.121 194.582 119.035L194.042 102.562C194.032 102.276 194.043 101.99 194.075 101.706L196.306 81.5171C196.392 80.7353 196.632 79.9781 197.01 79.2886L202.556 69.1879C203.026 68.3316 203.698 67.6031 204.513 67.0656L214.523 60.4687L227.909 50.1579C229.073 49.2611 230.526 48.8228 231.991 48.926L251.868 50.3252C252.966 50.4025 254.021 50.7802 254.918 51.417L267.084 60.0486C267.385 60.2618 267.665 60.5021 267.921 60.7666L277.212 70.3542C277.765 70.9248 278.2 71.5997 278.49 72.3395L283.311 84.637C283.618 85.4186 283.757 86.2558 283.719 87.0945Z" fill="#B7B7B7"/>
<path d="M203.764 120.553L200.535 102.226C200.469 101.854 200.439 101.476 200.444 101.098L200.502 97.1235C200.514 96.3315 200.682 95.5495 200.997 94.8235L205.09 85.3883L212.41 71.6734C212.676 71.1753 213.011 70.7173 213.405 70.3128L224.821 58.5876C225.631 57.7556 226.665 57.1766 227.798 56.9207L240.094 54.1435C241.434 53.8409 242.837 54.0071 244.069 54.6145L260.052 62.4936C260.442 62.6862 260.811 62.9208 261.151 63.1932L270.869 70.9811C271.882 71.793 272.604 72.9115 272.928 74.1688L277.033 90.1325C277.304 91.1855 277.283 92.2925 276.973 93.3355L273.476 105.11C273.337 105.581 273.14 106.032 272.89 106.454L264.784 120.173C264.403 120.818 263.905 121.385 263.316 121.846L250.355 131.991L239.697 138.73C238.804 139.295 237.777 139.614 236.721 139.655L222.126 140.218C220.262 140.29 218.471 139.491 217.279 138.057L205.058 123.346C204.391 122.543 203.945 121.581 203.764 120.553Z" fill="black"/>
</svg>
