<svg width="462" height="270" viewBox="0 0 462 270" fill="none" xmlns="http://www.w3.org/2000/svg">
<path d="M1.63855 233.166L1 247.485L3.82734 255.582L11.6406 259.119L32.3241 260.041L61.7451 257.572L88.5071 251.084L106.228 242.108L182.597 245.513L181.959 259.833L186.448 266.41L199.105 268.568L220.002 264.717L234.463 262.174L254.052 251.888L333.888 249.071L358.037 243.771L377.626 233.485L396.719 234.337L412.842 230.273L435.471 223.311L453.399 214.546L460.472 198.919L460.827 190.964L452.061 173.037L446.052 164.798L435.127 159.528L422.399 158.96L404.614 164.544L390.011 170.27L387.964 144.671L385.775 122.255L379.31 88.4876L367.646 64.0544L350.925 45.7726L330.596 36.895L314.615 37.7766L295.238 43.2893L280.635 49.0149L281.557 28.3314L280.605 13.9411L276.399 0.999999L266.428 10.1205L257.976 20.903L246.058 37.9078L187.189 35.2827L142.499 36.4782L120.082 38.667L120.934 19.5745L118.39 5.1132L108.418 14.2338L94.7671 34.3497L82.2109 65.6739L73.1914 89.1847L71.1338 135.325L64.9009 203.598L35.789 210.39L8.5703 220.721L1.63855 233.166Z" fill="#9001B4" stroke="#9001B4"/>
<path d="M47.1353 78.3697L83.018 101.8C85.5978 103.485 86.4822 106.85 85.0642 109.586L78.6682 121.924M78.6682 121.924L36.0181 99.8155M78.6682 121.924L74.7354 129.511C73.5435 131.81 71.0119 133.085 68.4558 132.674L32.1564 126.837" stroke="#9001B4" stroke-width="4"/>
<path d="M87.3088 82.2626L100.434 68.9249C100.961 68.3898 101.584 67.9582 102.27 67.6526L113.569 62.619C114.017 62.4194 114.488 62.2755 114.971 62.1905L128.056 59.889C128.488 59.8132 128.926 59.7848 129.363 59.8043L146.079 60.5497C147.202 60.5998 148.289 60.9646 149.215 61.6024L159.415 68.6285C159.916 68.9736 160.362 69.3928 160.737 69.8719L169.221 80.7121L175.633 90.5912C176.313 91.6402 176.649 92.8762 176.594 94.1252L176.044 106.454C175.995 107.54 175.653 108.593 175.052 109.5L166.202 122.862C165.879 123.351 165.485 123.789 165.034 124.164L148.426 137.962C147.817 138.468 147.113 138.849 146.356 139.082L125.623 145.46C125.126 145.613 124.611 145.701 124.09 145.721L107.99 146.343C106.522 146.399 105.083 145.915 103.948 144.982L88.5557 132.328C87.7057 131.629 87.0642 130.71 86.7014 129.671L81.9823 116.156C81.7307 115.436 81.6189 114.674 81.6529 113.911L82.3525 98.2222C82.372 97.7852 82.4393 97.3512 82.5532 96.9282L85.792 84.9099C86.0611 83.9115 86.5836 82.9996 87.3088 82.2626Z" fill="#B7B7B7"/>
<path d="M88.8706 98.6522L92.2835 84.8235C92.4713 84.0627 92.8062 83.3459 93.2696 82.7139L95.2533 80.0078C95.7216 79.3689 96.3118 78.8291 96.9899 78.4194L105.792 73.1015L119.075 66.4786C119.988 66.0236 121.001 65.8087 122.02 65.8541L138.287 66.5795C139.126 66.6169 139.947 66.8299 140.698 67.2047L152.412 73.0487C153.191 73.4375 153.876 73.9913 154.42 74.6716L163.411 85.9209C163.908 86.5433 164.277 87.2586 164.495 88.025L167.752 99.4722C168.107 100.721 168.048 102.051 167.583 103.263L161.679 118.653C161.289 119.668 160.631 120.559 159.775 121.229L150.102 128.799C149.716 129.101 149.294 129.355 148.846 129.555L134.289 136.039C133.606 136.344 132.872 136.518 132.124 136.552L116.842 137.257C116.076 137.292 115.311 137.181 114.587 136.928L101.184 132.247C100.394 131.97 99.67 131.532 99.0591 130.959L91.1011 123.498C89.9319 122.402 89.2499 120.883 89.207 119.281L88.6979 100.25C88.6835 99.7122 88.7416 99.1752 88.8706 98.6522Z" fill="black"/>
<path d="M194.456 100.232L214.456 110.732H253.956L276.456 100.232" stroke="black" stroke-width="4"/>
</svg>
