<svg width="411" height="390" viewBox="0 0 411 390" fill="none" xmlns="http://www.w3.org/2000/svg">
<path d="M78.2771 26.3411L80.5818 14.8881L85.2795 26.1434L94.8972 56.5318L213.063 53.1965L216.105 5.80674L242.466 70.7624L266.498 146.296L279.864 185.338L288.053 227.155L296.117 264.595L300.063 280.252L302.259 295.958L303.751 310.644C304.363 316.666 312.494 318.096 315.124 312.644L320.5 301.5L313.5 280.252L332 274.5L316.5 250L327 243L322 222.724L337 207.5L327 190L337 185.338L334.5 170.481L349.272 170.481L351 151.981L361.428 159.481L375.5 149.819L380.857 165.064L388.5 165.064L384.882 181.788L405.5 197.5L391 214L403 229.584L398.5 251.949L408 271.584L393.312 285.383L394.863 313.135C394.951 314.704 394.419 316.245 393.383 317.427L373.508 340.084L352.92 365.849C352.315 366.605 351.538 367.204 350.652 367.594L330.304 376.562C329.771 376.797 329.206 376.953 328.628 377.025L296.384 381.049C296.064 381.089 295.74 381.103 295.417 381.091L229.256 378.61L148.679 379.133L103.065 376.916L63.5773 374.527L38.4188 371.06C37.6112 370.949 36.8348 370.674 36.1369 370.253L27.5225 365.053C25.7747 363.997 24.6834 362.126 24.6258 360.085L24.2488 346.729L25.9111 312.518L27.5487 277.432L30.2099 247.573L37.0993 212.339L39.8593 185.981L44.3205 157.823L49.6817 130.516L57.5453 98.758L66.4077 71.3519L78.2771 26.3411Z" fill="#9001B4" stroke="#9001B4"/>
<path d="M22 98.5L29.4588 103.5L40.5 101L46 110.5L54.785 114.502L49.5931 134.829M49.5931 134.829L47.0886 148.233L29 154.5L19 149.5L10.5 152.5M49.5931 134.829L41.0002 131.5L29.4588 133.5L24.5002 124L14.0002 123" stroke="#9001B4" stroke-width="4"/>
<path d="M280.061 86.9872L273 91.001L264 88.501L259.5 98.001L251.553 99.5792L258.104 118.573M258.104 118.573L261.82 131.361L270.5 132.001L277.5 126.001L293.387 133.776M258.104 118.573L264 112.412L273.5 116.001L280 110.372L291 115.501" stroke="#9001B4" stroke-width="4"/>
<path d="M70.0596 110.975L75.9508 100.175C76.6286 98.9327 77.724 97.9697 79.0432 97.4566L89.4512 93.4086C90.1446 93.139 90.8821 93.0006 91.6261 93.0006L103.735 93.0006C104.243 93.0006 104.749 93.0651 105.241 93.1926L117.208 96.2951C117.734 96.4314 118.239 96.6384 118.709 96.9105L126.82 101.607C127.271 101.868 127.687 102.187 128.056 102.556L135.129 109.629C135.376 109.876 135.601 110.144 135.802 110.431L141.812 119.017C142.266 119.666 142.588 120.399 142.757 121.173L143.703 125.493C144.03 126.985 143.776 128.545 142.992 129.856L137.695 138.714C137.391 139.222 137.014 139.682 136.575 140.08L125.042 150.534C124.471 151.05 123.807 151.453 123.085 151.719L108.005 157.27C107.543 157.44 107.061 157.553 106.571 157.605L94.8983 158.854C93.5055 159.002 92.1044 158.659 90.938 157.884L79.2746 150.128C78.3457 149.511 77.6074 148.646 77.1426 147.632L72.6642 137.862L68.4822 126.329C68.1653 125.455 68.0558 124.52 68.1624 123.596L69.3665 113.161C69.4549 112.394 69.6903 111.652 70.0596 110.975Z" fill="#B7B7B7"/>
<path d="M73.7872 125.852L75.3333 116.961C75.4439 116.325 75.6565 115.711 75.9627 115.143L78.9335 109.629C79.1586 109.212 79.4325 108.822 79.7493 108.469L84.3936 103.292C85.4249 102.143 86.8597 101.435 88.3995 101.316L98.521 100.538C98.8401 100.513 99.1606 100.514 99.4795 100.541L109.714 101.394C110.562 101.464 111.385 101.715 112.129 102.128L123.81 108.617C124.268 108.872 124.691 109.185 125.068 109.55L133.656 117.857C134.096 118.284 134.469 118.776 134.761 119.315L138.264 125.79C139.331 127.763 139.209 130.165 137.948 132.019L134.792 136.661C134.479 137.121 134.104 137.535 133.678 137.891L126.481 143.907C126.118 144.211 125.719 144.471 125.295 144.681L114.784 149.884C114.159 150.193 113.484 150.391 112.791 150.469L101.454 151.741C100.751 151.82 100.039 151.774 99.352 151.605L89.2181 149.111C88.4415 148.92 87.7108 148.576 87.0692 148.098L80.6537 143.323C79.751 142.651 79.0555 141.739 78.6465 140.691L74.1088 129.06C73.7108 128.04 73.5996 126.93 73.7872 125.852Z" fill="black"/>
<path d="M232.495 134.733L221.681 144.906C220.723 145.807 219.47 146.319 218.13 146.357L206.937 146.676L195.97 146.431C195.552 146.422 195.132 146.366 194.718 146.266L181.278 143.004C180.694 142.863 180.129 142.633 179.599 142.323L171.704 137.7C170.192 136.815 169.073 135.332 168.626 133.625L166.797 126.636C166.601 125.886 166.541 125.115 166.62 124.364L167.426 116.702C167.475 116.236 167.577 115.782 167.73 115.349L170.334 107.972C170.445 107.659 170.582 107.357 170.743 107.071L176.783 96.3859C176.928 96.1296 177.092 95.8865 177.274 95.6587L184.303 86.8727C184.764 86.2966 185.334 85.8252 185.982 85.4837L194.5 81.0007L209.574 75.3482C210.187 75.1184 210.841 75.001 211.509 75.001L225.341 75.001C227.582 75.001 229.724 76.3165 230.867 78.3947L239.324 93.7719C239.769 94.581 240.042 95.4687 240.121 96.3711L241.382 110.655C241.46 111.542 241.35 112.421 241.061 113.231L237.716 122.59L233.859 132.686C233.558 133.472 233.093 134.169 232.495 134.733Z" fill="#B7B7B7"/>
<path d="M232.704 119.817L225.455 131.42C225.258 131.736 225.03 132.029 224.775 132.296L222.943 134.21C222.417 134.76 221.781 135.189 221.074 135.471L213.959 138.315L202.618 141.757C202.107 141.912 201.573 141.991 201.029 141.994L188.551 142.047C187.44 142.052 186.327 141.733 185.339 141.126L177.022 136.021C175.893 135.328 174.985 134.295 174.432 133.075L171.911 127.51C171.322 126.21 171.171 124.775 171.484 123.445L173 117L176.217 108.27C176.405 107.76 176.663 107.283 176.984 106.856L183.551 98.1002C183.849 97.7021 184.2 97.3491 184.593 97.0502L195.684 88.621C196.224 88.2106 196.838 87.9074 197.497 87.7255L210.28 84.1993C210.758 84.0673 211.256 84.0005 211.76 84.0005L220.162 84.0005C222.233 84.0005 224.235 85.1213 225.436 86.9533L232.716 98.0564C233.444 99.1655 233.825 100.458 233.805 101.746L233.57 116.819C233.553 117.9 233.254 118.935 232.704 119.817Z" fill="black"/>
</svg>
