<svg width="424" height="389" viewBox="0 0 424 389" fill="none" xmlns="http://www.w3.org/2000/svg">
<path d="M69.2768 26.3406L71.5815 14.8876L76.2792 26.1429L85.8969 56.5314L204.062 53.196L207.105 5.80626L233.466 70.7619L257.498 146.295L270.864 185.338L279.052 227.155L287.117 264.595L291.063 280.251L293.258 295.957L296.333 326.222C296.651 329.35 299.329 331.702 302.472 331.613L321.441 331.078C321.998 331.062 322.551 330.969 323.082 330.801L333.682 327.446C334.183 327.287 334.66 327.064 335.103 326.781L342.097 322.312C342.721 321.913 343.266 321.402 343.704 320.804L347.826 315.184C348.555 314.19 348.96 312.997 348.987 311.765L349.327 296.127L348.147 283.718C348.103 283.256 348.006 282.8 347.857 282.36L344.672 272.962C344.4 272.158 344.301 271.305 344.382 270.46L344.838 265.738C344.903 265.061 345.083 264.4 345.37 263.783L346.785 260.74C347.198 259.853 347.822 259.08 348.602 258.489L352.592 255.465C353.138 255.051 353.752 254.734 354.405 254.527L364.321 251.389C365.146 251.128 366.017 251.048 366.876 251.155L375.935 252.288C376.64 252.377 377.324 252.589 377.955 252.917L384.481 256.305C384.828 256.485 385.156 256.699 385.461 256.943L396.197 265.519C396.5 265.761 396.779 266.032 397.03 266.328L407.201 278.331C407.418 278.587 407.613 278.861 407.784 279.15L416.288 293.488C416.578 293.976 416.797 294.504 416.938 295.054L421.441 312.565C421.576 313.091 421.64 313.633 421.629 314.175L421.306 330.882C421.294 331.467 421.198 332.046 421.019 332.603L416.84 345.599C416.587 346.386 416.175 347.112 415.628 347.731L404.573 360.267L391.808 371.251C391.202 371.773 390.498 372.168 389.736 372.413L370.871 378.498C370.33 378.673 369.767 378.77 369.199 378.786L286.902 381.109L220.256 378.61L139.679 379.132L94.0642 376.916L54.5769 374.526L29.4184 371.06C28.6109 370.948 27.8344 370.674 27.1366 370.252L18.5222 365.052C16.7743 363.997 15.683 362.126 15.6254 360.085L15.2484 346.728L16.9107 312.518L18.5484 277.432L21.2095 247.573L28.099 212.338L30.859 185.98L35.3202 157.823L40.6814 130.515L48.5449 98.7575L57.4073 71.3515L69.2768 26.3406Z" fill="#9001B4" stroke="#9001B4"/>
<path d="M20.4584 100.585L45.7847 114.502L40.5927 134.828M40.5927 134.828L12.4549 124.714M40.5927 134.828L38.0882 148.232L9.87925 152.43" stroke="#9001B4" stroke-width="4"/>
<path d="M271.06 86.9862L257.071 90.908C256.534 91.0587 256.02 91.2837 255.544 91.5765L242.553 99.5781L249.103 118.572M249.103 118.572L252.819 131.36L284.387 133.775M249.103 118.572L263.981 112.686C264.444 112.503 264.927 112.378 265.42 112.315L280.483 110.371" stroke="#9001B4" stroke-width="4"/>
<path d="M66.5433 113.665L75.3269 103.937C75.8215 103.39 76.413 102.938 77.0716 102.605L85.0492 98.5687C85.467 98.3574 85.908 98.1956 86.3633 98.0868L95.9578 95.7942C96.3595 95.6982 96.77 95.644 97.1829 95.6323L109.526 95.2839C110.596 95.2537 111.655 95.5103 112.592 96.0272L120.259 100.254C120.786 100.545 121.266 100.913 121.684 101.346L128.58 108.507L133.624 114.784C134.445 115.804 134.909 117.065 134.945 118.373L135.163 126.067C135.195 127.209 134.901 128.336 134.314 129.316L128.695 138.713C128.391 139.221 128.013 139.682 127.575 140.079L116.041 150.533C115.471 151.05 114.807 151.452 114.085 151.718L99.0051 157.269C98.5424 157.439 98.0606 157.552 97.5704 157.605L85.8979 158.853C84.5051 159.002 83.1041 158.659 81.9376 157.883L70.2743 150.128C69.3454 149.51 68.6071 148.646 68.1422 147.632L64.1727 138.972C63.8369 138.239 63.6521 137.447 63.6293 136.641L63.3277 125.955C63.3146 125.492 63.3554 125.028 63.4491 124.574L65.1203 116.474C65.3362 115.428 65.8274 114.458 66.5433 113.665Z" fill="#B7B7B7"/>
<path d="M68.7633 125.669L70.5012 116.418C70.6542 115.604 70.9742 114.83 71.441 114.146L72.4145 112.718C72.8594 112.066 73.4288 111.508 74.0899 111.076L80.3136 107.01L89.9154 101.752C90.7487 101.296 91.6783 101.044 92.6279 101.017L104.709 100.676C105.488 100.654 106.263 100.784 106.992 101.058L115.84 104.391C116.634 104.689 117.355 105.153 117.957 105.751L124.987 112.742C125.574 113.326 126.034 114.025 126.338 114.795L129.043 121.656C129.558 122.962 129.599 124.407 129.158 125.74L125.857 135.729C125.506 136.791 124.866 137.733 124.008 138.45L117.481 143.907C117.117 144.211 116.719 144.47 116.294 144.681L105.783 149.883C105.158 150.193 104.484 150.391 103.791 150.469L92.4541 151.74C91.7507 151.819 91.0389 151.773 90.3516 151.604L80.2178 149.111C79.4411 148.919 78.7105 148.575 78.0688 148.097L72.3791 143.862C71.0359 142.863 70.1716 141.347 69.995 139.682L68.6936 127.41C68.632 126.829 68.6555 126.243 68.7633 125.669Z" fill="black"/>
<path d="M223.495 134.731L212.681 144.904C211.723 145.805 210.47 146.318 209.13 146.356L197.937 146.674L186.97 146.43C186.551 146.421 186.132 146.365 185.718 146.265L172.277 143.003C171.694 142.862 171.128 142.632 170.599 142.322L161.876 137.214C160.865 136.622 160.018 135.755 159.436 134.717L154.805 126.46C154.506 125.928 154.282 125.359 154.139 124.771L151.744 114.915C151.544 114.094 151.507 113.252 151.636 112.441L153.124 103.048C153.298 101.949 153.769 100.944 154.485 100.146L162.531 91.1856C162.717 90.9789 162.918 90.7874 163.132 90.6126L174.837 81.0792C175.419 80.6053 176.093 80.2605 176.823 80.0645L184.959 77.8789C185.849 77.6398 186.797 77.6279 187.725 77.8441L196.864 79.9729L209.816 82.0226C211.226 82.2458 212.549 82.979 213.545 84.0889L224.016 95.7595C224.784 96.6153 225.322 97.6566 225.572 98.7679L228.095 110.013C228.18 110.391 228.23 110.774 228.246 111.156L228.664 121.332C228.698 122.161 228.567 122.976 228.281 123.727L224.858 132.684C224.558 133.47 224.093 134.168 223.495 134.731Z" fill="#B7B7B7"/>
<path d="M223.703 119.816L216.455 131.42C216.258 131.736 216.03 132.029 215.774 132.296L213.943 134.209C213.416 134.759 212.781 135.188 212.073 135.471L204.958 138.315L193.618 141.756C193.107 141.911 192.572 141.991 192.029 141.993L179.551 142.047C178.44 142.052 177.326 141.732 176.339 141.126L168.128 136.086C166.934 135.353 165.989 134.241 165.449 132.933L160.128 120.055C159.953 119.631 159.823 119.191 159.739 118.744L158.03 109.55C157.78 108.207 157.967 106.85 158.562 105.694L163.943 95.2335C164.433 94.2813 165.179 93.5061 166.099 92.9921L173.859 88.6562C174.266 88.4292 174.701 88.2559 175.156 88.1403L186.796 85.1805C187.481 85.0063 188.201 84.9651 188.92 85.0588L201.763 86.7332L211.386 88.9601C212.392 89.1931 213.343 89.6853 214.145 90.3893L222.509 97.723C223.974 99.0076 224.818 100.881 224.788 102.783L224.57 116.818C224.553 117.9 224.254 118.935 223.703 119.816Z" fill="black"/>
</svg>
