<svg width="288" height="573" viewBox="0 0 288 573" fill="none" xmlns="http://www.w3.org/2000/svg">
<path d="M144 0V285" stroke="#B7B7B7" stroke-width="5"/>
<circle cx="144" cy="429" r="141.5" stroke="#B7B7B7" stroke-width="5"/>
<path d="M233.5 318.148H56.5L33.5 339.5L21.257 358.974H266.5L276 377.5L281 396.884H6.5L4 407.5L3 418.5V434.065H285L284 452L280 468.329H8.5L15.5 488.5L27.7636 508.426H260.5L251 521.5L239.5 532.484L49 532L64 545.5L84.5 558H206.687" stroke="#B7B7B7" stroke-width="5"/>
<path d="M102 294.5V318H121M189 318H174.5V290.5L142.5 287V318H121M189 318H204V300.5L231 318H218V359H189V318ZM157.5 318V359H139.25M121 318V359H139.25M68 318V359H41.5V397H68.25M139.25 359H95V397H68.25M139.25 359V397H161.375M247.25 397H228V359H183.5V397H161.375M247.25 397H266.5V359L275.5 375.5L281 394.5V397H247.25ZM247.25 397V434H225.625M161.375 397H204V434H225.625M161.375 397V434M115.5 397V434H92M68.25 397L68 434H92M22 397V434H41.5V468.5H76M92 434V468.5H76M139.5 434V468.5H169.5M225.625 434H186V468.5H169.5M225.625 434V468.5M264 434V468.5H244V508.5H230M169.5 468.5H205.5V508.5H230M169.5 468.5V508.5M119 468.5V508.5H92M76 468.5V508.5H92M33 468.5V508.5H56V532.5H88M92 508.5V532.5H88M157 508.5V532.5H175.5M230 508.5H191V532.5H175.5M230 508.5V532.5H211V554L201 558H175.5V532.5M139 532.5V558H89L88 532.5" stroke="#B7B7B7" stroke-width="5"/>
<path d="M159 320H187V357H159V320Z" fill="#9001B4"/>
<path d="M97 361H137V395H97V361Z" fill="#9001B4"/>
<path d="M36 341L55 320H66V357H25L36 341Z" fill="#9001B4"/>
<path d="M220 320H231L240.5 328.5L249 338L256.5 347L263 357H220V320Z" fill="#9001B4"/>
<path d="M266 436H282.5V449.5L278.5 466H266V436Z" fill="#9001B4"/>
<path d="M163 399H202V432H163V399Z" fill="#9001B4"/>
<path d="M43.5 436H90V466H43.5V451V436Z" fill="#9001B4"/>
<path d="M172 471H203V506H172V471Z" fill="#9001B4"/>
<path d="M58 511H90V530H58V511Z" fill="#9001B4"/>
<path d="M141 534H173V556H141V534Z" fill="#9001B4"/>
<path d="M232 511H255.5L249 520.5L238.5 530H232V511Z" fill="#9001B4"/>
</svg>
