<svg width="1123" height="573" viewBox="0 0 1123 573" fill="none" xmlns="http://www.w3.org/2000/svg">
<path d="M561 0V285" stroke="#B7B7B7" stroke-width="5"/>
<circle cx="561" cy="429" r="141.5" stroke="#B7B7B7" stroke-width="5"/>
<path d="M650.5 318.148H473.5L450.5 339.5L438.257 358.974H683.5L693 377.5L698 396.884H423.5L421 407.5L420 418.5V434.065H702L701 452L697 468.329H425.5L432.5 488.5L444.764 508.426H677.5L668 521.5L656.5 532.484L466 532L481 545.5L501.5 558H623.687" stroke="#B7B7B7" stroke-width="5"/>
<path d="M519 294.5V318H538M606 318H591.5V290.5L559.5 287V318H538M606 318H621V300.5L648 318H635V359H606V318ZM574.5 318V359H556.25M538 318V359H556.25M485 318V359H458.5V397H485.25M556.25 359H512V397H485.25M556.25 359V397H578.375M664.25 397H645V359H600.5V397H578.375M664.25 397H683.5V359L692.5 375.5L698 394.5V397H664.25ZM664.25 397V434H642.625M578.375 397H621V434H642.625M578.375 397V434M532.5 397V434H509M485.25 397L485 434H509M439 397V434H458.5V468.5H493M509 434V468.5H493M556.5 434V468.5H586.5M642.625 434H603V468.5H586.5M642.625 434V468.5M681 434V468.5H661V508.5H647M586.5 468.5H622.5V508.5H647M586.5 468.5V508.5M536 468.5V508.5H509M493 468.5V508.5H509M450 468.5V508.5H473V532.5H505M509 508.5V532.5H505M574 508.5V532.5H592.5M647 508.5H608V532.5H592.5M647 508.5V532.5H628V554L618 558H592.5V532.5M556 532.5V558H506L505 532.5" stroke="#B7B7B7" stroke-width="5"/>
<path d="M540 320H572V357H540V320Z" fill="#9001B4"/>
<path d="M461 361H510V395H461V361Z" fill="#9001B4"/>
<path d="M608 320H633V357H608V320Z" fill="#9001B4"/>
<path d="M645 436H679V466H645V436Z" fill="#9001B4"/>
<path d="M535 399H576V432H535V399Z" fill="#9001B4"/>
<path d="M422 436H456V466H426.5L423.5 451L422 436Z" fill="#9001B4"/>
<path d="M538 471H584V506H538V471Z" fill="#9001B4"/>
<path d="M610 511H645V530H610V511Z" fill="#9001B4"/>
<path d="M979 0V285" stroke="#B7B7B7" stroke-width="5"/>
<circle cx="979" cy="429" r="141.5" stroke="#B7B7B7" stroke-width="5"/>
<path d="M1068.5 318.148H891.5L868.5 339.5L856.257 358.974H1101.5L1111 377.5L1116 396.884H841.5L839 407.5L838 418.5V434.065H1120L1119 452L1115 468.329H843.5L850.5 488.5L862.764 508.426H1095.5L1086 521.5L1074.5 532.484L884 532L899 545.5L919.5 558H1041.69" stroke="#B7B7B7" stroke-width="5"/>
<path d="M937 294.5V318H956M1024 318H1009.5V290.5L977.5 287V318H956M1024 318H1039V300.5L1066 318H1053V359H1024V318ZM992.5 318V359H974.25M956 318V359H974.25M903 318V359H876.5V397H903.25M974.25 359H930V397H903.25M974.25 359V397H996.375M1082.25 397H1063V359H1018.5V397H996.375M1082.25 397H1101.5V359L1110.5 375.5L1116 394.5V397H1082.25ZM1082.25 397V434H1060.62M996.375 397H1039V434H1060.62M996.375 397V434M950.5 397V434H927M903.25 397L903 434H927M857 397V434H876.5V468.5H911M927 434V468.5H911M974.5 434V468.5H1004.5M1060.62 434H1021V468.5H1004.5M1060.62 434V468.5M1099 434V468.5H1079V508.5H1065M1004.5 468.5H1040.5V508.5H1065M1004.5 468.5V508.5M954 468.5V508.5H927M911 468.5V508.5H927M868 468.5V508.5H891V532.5H923M927 508.5V532.5H923M992 508.5V532.5H1010.5M1065 508.5H1026V532.5H1010.5M1065 508.5V532.5H1046V554L1036 558H1010.5V532.5M974 532.5V558H924L923 532.5" stroke="#B7B7B7" stroke-width="5"/>
<path d="M994 320H1022V357H994V320Z" fill="#9001B4"/>
<path d="M932 361H972V395H932V361Z" fill="#9001B4"/>
<path d="M871 341L890 320H901V357H860L871 341Z" fill="#9001B4"/>
<path d="M1055 320H1066L1075.5 328.5L1084 338L1091.5 347L1098 357H1055V320Z" fill="#9001B4"/>
<path d="M1101 436H1117.5V449.5L1113.5 466H1101V436Z" fill="#9001B4"/>
<path d="M998 399H1037V432H998V399Z" fill="#9001B4"/>
<path d="M878.5 436H925V466H878.5V451V436Z" fill="#9001B4"/>
<path d="M1007 471H1038V506H1007V471Z" fill="#9001B4"/>
<path d="M893 511H925V530H893V511Z" fill="#9001B4"/>
<path d="M976 534H1008V556H976V534Z" fill="#9001B4"/>
<path d="M1067 511H1090.5L1084 520.5L1073.5 530H1067V511Z" fill="#9001B4"/>
<path d="M144 0V285" stroke="#B7B7B7" stroke-width="5"/>
<circle cx="144" cy="429" r="141.5" stroke="#B7B7B7" stroke-width="5"/>
<path d="M233.5 318.148H56.5L33.5 339.5L21.257 358.974H266.5L276 377.5L281 396.884H6.5L4 407.5L3 418.5V434.065H285L284 452L280 468.329H8.5L15.5 488.5L27.7636 508.426H260.5L251 521.5L239.5 532.484L49 532L64 545.5L84.5 558H206.687" stroke="#B7B7B7" stroke-width="5"/>
<path d="M102 294.5V318H121M189 318H174.5V290.5L142.5 287V318H121M189 318H204V300.5L231 318H218V359H189V318ZM157.5 318V359H139.25M121 318V359H139.25M68 318V359H41.5V397H68.25M139.25 359H95V397H68.25M139.25 359V397H161.375M247.25 397H228V359H183.5V397H161.375M247.25 397H266.5V359L275.5 375.5L281 394.5V397H247.25ZM247.25 397V434H225.625M161.375 397H204V434H225.625M161.375 397V434M115.5 397V434H92M68.25 397L68 434H92M22 397V434H41.5V468.5H76M92 434V468.5H76M139.5 434V468.5H169.5M225.625 434H186V468.5H169.5M225.625 434V468.5M264 434V468.5H244V508.5H230M169.5 468.5H205.5V508.5H230M169.5 468.5V508.5M119 468.5V508.5H92M76 468.5V508.5H92M33 468.5V508.5H56V532.5H88M92 508.5V532.5H88M157 508.5V532.5H175.5M230 508.5H191V532.5H175.5M230 508.5V532.5H211V554L201 558H175.5V532.5M139 532.5V558H89L88 532.5" stroke="#B7B7B7" stroke-width="5"/>
<path d="M69 320.5H120V357H69V320.5Z" fill="#9001B4"/>
<path d="M159 320.5H188V356.5H159V320.5Z" fill="#9001B4"/>
<path d="M162 399.5H203V432H162V399.5Z" fill="#9001B4"/>
<path d="M22 399H67V431.5H22V399Z" fill="#9001B4"/>
<path d="M93 436.5H138V466H93V436.5Z" fill="#9001B4"/>
<path d="M171 471H204V506H171V471Z" fill="#9001B4"/>
<path d="M93 511H156V530H93V511Z" fill="#9001B4"/>
</svg>
