<svg width="314" height="125" viewBox="0 0 314 125" fill="none" xmlns="http://www.w3.org/2000/svg">
<path fill-rule="evenodd" clip-rule="evenodd" d="M15.3082 34.434H9.10425V61.0202H0V0.530762H9.10425V24.7584H15.3082V0.530762H24.4124V61.0202H15.3082V34.434Z" fill="#B7B7B7"/>
<path fill-rule="evenodd" clip-rule="evenodd" d="M40.3734 61.8159H38.5796C31.2426 61.8159 27.3313 57.8258 27.3313 50.3309V38.1959H36.4621V48.7842C36.4621 51.554 37.359 53.0185 39.4791 53.0185C41.5993 53.0185 42.4962 51.554 42.4962 47.8052V46.4203C42.4962 42.1038 42.0876 40.5571 38.7468 36.2406L32.8772 28.7484C28.9659 23.697 27.8249 19.7891 27.8249 13.7613V11.8061C27.8195 3.7461 31.8954 0 39.1501 0H40.8616C48.4428 0 51.3776 3.33753 51.3776 10.5061V20.4417H42.4936V11.7291C42.4936 9.69157 42.0849 8.14485 39.8851 8.14485C37.6854 8.14485 37.1945 9.52974 37.1945 12.3791V13.5199C37.1945 16.9397 37.8472 18.8127 40.9439 22.8029L46.8135 30.3774C50.9716 35.7524 52.2745 38.8485 52.2745 45.6881V47.6434C52.2745 56.5205 48.4428 61.8133 40.3734 61.8133" fill="#B7B7B7"/>
<path fill-rule="evenodd" clip-rule="evenodd" d="M75.9386 0.530762V9.30969H64.3135V25.1669H73.4337V34.3544H64.3135V51.8327H76.4216V61.0202H55.1934V0.530762H75.9386Z" fill="#B7B7B7"/>
<path fill-rule="evenodd" clip-rule="evenodd" d="M100.242 40.613L97.7692 18.2531L95.381 40.613H100.242ZM101.229 49.636H94.4735L93.237 61.0202H84.9128L92.4117 0.530762H103.456L111.451 61.0202H102.469L101.229 49.636Z" fill="#B7B7B7"/>
<path fill-rule="evenodd" clip-rule="evenodd" d="M122.054 25.4084H124.517C127.061 25.4084 127.884 23.782 127.884 21.0998V12.6446C127.884 10.0419 127.308 8.74194 124.517 8.74194H122.054V25.4084ZM122.054 61.0202H112.775V0.530762H127.802C133.958 0.530762 137.078 3.1334 137.078 9.88009V20.6117C137.078 25.6524 134.696 27.6024 133.056 28.3347C135.107 29.2288 137.078 30.8551 137.078 34.9195V56.1412C137.078 58.5794 137.569 59.7175 137.983 60.6116V61.0202H128.786C128.375 60.3702 127.884 59.3116 127.884 56.059V37.8485C127.884 35.1636 127.393 34.0255 124.434 34.0255H122.054V61.0175V61.0202Z" fill="#B7B7B7"/>
<path fill-rule="evenodd" clip-rule="evenodd" d="M155.247 9.30969V61.0202H146.193V9.30969H138.514V0.530762H162.926V9.30969H155.247Z" fill="#B7B7B7"/>
<path fill-rule="evenodd" clip-rule="evenodd" d="M184.094 40.613L181.621 18.2531L179.23 40.613H184.091H184.094ZM185.081 49.636H178.322L177.086 61.0202H168.762L176.263 0.530762H187.304L195.3 61.0202H186.317L185.081 49.636Z" fill="#B7B7B7"/>
<path fill-rule="evenodd" clip-rule="evenodd" d="M205.139 0.530762L212.98 32.9695V0.530762H221.304V61.0202H213.869L205.139 26.2202V61.0202H196.892V0.530762H205.139Z" fill="#B7B7B7"/>
<path fill-rule="evenodd" clip-rule="evenodd" d="M234.214 52.2386H236.411C239.178 52.2386 239.99 50.7768 239.99 47.5242V13.4591C239.99 9.96234 239.096 8.74194 236.817 8.74194H234.214V52.2386ZM225.019 0.530762H239.099C246.99 0.530762 249.431 5.00114 249.431 12.1564V48.986C249.431 56.3827 246.664 61.0202 239.099 61.0202H225.019V0.530762Z" fill="#B7B7B7"/>
<path fill-rule="evenodd" clip-rule="evenodd" d="M9.19447 114.585H11.3916C14.1592 114.585 14.9738 113.123 14.9738 109.87V75.8026C14.9738 72.3059 14.0796 71.0855 11.8002 71.0855H9.19712V114.582L9.19447 114.585ZM0 62.877H14.0796C21.9712 62.877 24.4124 67.35 24.4124 74.5026V111.335C24.4124 118.732 21.6448 123.366 14.0796 123.366H0V62.877Z" fill="#B7B7B7"/>
<path fill-rule="evenodd" clip-rule="evenodd" d="M48.6046 62.877V71.6585H36.9822V87.5105H46.1023V96.7006H36.9822V114.182H49.0902V123.366H27.862V62.877H48.6046Z" fill="#B7B7B7"/>
<path fill-rule="evenodd" clip-rule="evenodd" d="M63.9898 124.162H62.196C54.859 124.162 50.9477 120.172 50.9477 112.677V100.542H60.0785V111.131C60.0785 113.9 60.9754 115.365 63.0929 115.365C65.2104 115.365 66.1099 113.898 66.1099 110.152V108.767C66.1099 104.45 65.7013 102.904 62.3605 98.587L56.4909 91.0921C52.5796 86.0434 51.4386 82.1355 51.4386 76.1104V74.1551C51.4386 66.0925 55.5144 62.3438 62.7692 62.3438H64.4807C72.0618 62.3438 74.9966 65.6839 74.9966 72.8498V82.7881H66.1126V74.0729C66.1126 72.0353 65.704 70.4886 63.5042 70.4886C61.3044 70.4886 60.8135 71.8735 60.8135 74.7229V75.8637C60.8135 79.2834 61.4663 81.1591 64.5629 85.1467L70.4325 92.7211C74.5906 98.0962 75.8935 101.192 75.8935 108.034V109.99C75.8935 118.864 72.0618 124.16 63.9924 124.16" fill="#B7B7B7"/>
<path fill-rule="evenodd" clip-rule="evenodd" d="M78.3135 123.35H87.6009V62.9404H78.3135V123.35Z" fill="#B7B7B7"/>
<path fill-rule="evenodd" clip-rule="evenodd" d="M99.6824 124.162C94.2586 124.162 90.8063 119.373 90.8063 113.12V75.3621C90.8063 68.6233 93.436 62.3701 102.23 62.3701H104.037C113.982 62.3701 115.131 68.7852 115.131 75.9298V82.1008H106.091V75.2798C106.091 72.6003 105.433 71.1411 103.132 71.1411C101.16 71.1411 100.256 72.6029 100.256 75.2798V110.602C100.256 113.444 101.407 114.906 103.296 114.906C105.679 114.906 106.749 113.282 106.749 111.008V95.9073H102.556V86.6508H115.543V123.35H110.283C110.201 123.027 109.461 120.021 108.723 117.423C108.065 119.453 104.942 124.162 100.258 124.162H99.6824Z" fill="#B7B7B7"/>
<path fill-rule="evenodd" clip-rule="evenodd" d="M126.857 62.877L134.701 95.3157V62.877H143.025V123.366H135.59L126.857 88.569V123.366H118.613V62.877H126.857Z" fill="#B7B7B7"/>
<path fill-rule="evenodd" clip-rule="evenodd" d="M167.212 124.162H165.418C158.084 124.162 154.17 120.172 154.17 112.677V100.542H163.301V111.131C163.301 113.9 164.198 115.365 166.318 115.365C168.438 115.365 169.332 113.898 169.332 110.152V108.767C169.332 104.45 168.926 102.904 165.583 98.587L159.716 91.0921C155.804 86.0434 154.663 82.1355 154.663 76.1104V74.1551C154.663 66.0925 158.739 62.3438 165.994 62.3438H167.706C175.287 62.3438 178.221 65.6839 178.221 72.8498V82.7881H169.335V74.0729C169.335 72.0353 168.929 70.4886 166.726 70.4886C164.524 70.4886 164.038 71.8735 164.038 74.7229V75.8637C164.038 79.2834 164.691 81.1591 167.788 85.1467L173.657 92.7211C177.815 98.0962 179.118 101.192 179.118 108.034V109.99C179.118 118.864 175.287 124.16 167.217 124.16" fill="#B7B7B7"/>
<path fill-rule="evenodd" clip-rule="evenodd" d="M196.682 111.149V97.0777H205.648V111.067C205.648 117.575 203.547 124.163 194.745 124.163H192.726C183.518 124.163 181.501 117.493 181.501 111.394V74.4658C181.501 68.2868 184.165 62.3467 192.405 62.3467H194.503C204.518 62.3467 205.648 69.0164 205.648 74.9566V85.7731H196.682V75.1184C196.682 72.5158 195.875 71.1336 193.615 71.1336C191.354 71.1336 190.786 72.4362 190.786 75.1184V111.07C190.786 113.755 191.675 115.217 193.694 115.217C195.875 115.217 196.682 113.59 196.682 111.149Z" fill="#B7B7B7"/>
<path fill-rule="evenodd" clip-rule="evenodd" d="M223.875 96.7802H217.671V123.366H208.567V62.877H217.671V87.1046H223.875V62.877H232.98V123.366H223.875V96.7802Z" fill="#B7B7B7"/>
<path fill-rule="evenodd" clip-rule="evenodd" d="M252.255 75.7682C252.255 72.5951 251.193 71.1306 249.073 71.1306C246.709 71.1306 245.809 72.6774 245.809 75.7682V110.579C245.809 113.181 246.544 115.214 249.156 115.214C251.605 115.214 252.255 113.181 252.255 110.579V75.7682ZM261.638 109.929C261.638 118.387 258.782 124.162 249.891 124.162H248.338C239.529 124.162 236.429 118.387 236.429 109.929V76.2537C236.429 67.8754 239.611 62.3438 248.259 62.3438H249.811C258.785 62.3438 261.64 67.8753 261.64 76.1714V109.926L261.638 109.929Z" fill="#B7B7B7"/>
<path fill-rule="evenodd" clip-rule="evenodd" d="M280.12 75.7682C280.12 72.5951 279.058 71.1306 276.938 71.1306C274.574 71.1306 273.674 72.6774 273.674 75.7682V110.579C273.674 113.181 274.409 115.214 277.018 115.214C279.467 115.214 280.12 113.181 280.12 110.579V75.7682ZM289.5 109.929C289.5 118.387 286.645 124.162 277.753 124.162H276.203C267.393 124.162 264.291 118.387 264.291 109.929V76.2537C264.291 67.8754 267.473 62.3438 276.121 62.3438H277.673C286.647 62.3438 289.502 67.8753 289.502 76.1714V109.926L289.5 109.929Z" fill="#B7B7B7"/>
<path fill-rule="evenodd" clip-rule="evenodd" d="M302.149 62.877V114.017H313.381V123.366H292.949V62.877H302.149Z" fill="#B7B7B7"/>
</svg>
