<svg width="133" height="730" viewBox="0 0 133 730" fill="none" xmlns="http://www.w3.org/2000/svg">
<path d="M40.8218 568.092V571.332L49.3103 570.584L90.9573 571.332L96.2626 572.328V561.115M40.8218 568.092L44.2703 565.351L42.0217 559.994M40.8218 568.092L96.2626 561.115M40.8218 552.406L44.2703 558.125L40.8218 561.115L42.0217 559.994M40.8218 552.406L44.2703 549.903L42.546 547.785L43.6436 545.667H44.2703M40.8218 552.406L96.2626 544.681M44.2703 545.667L41.6176 537.942M44.2703 545.667L94.6436 535.82M41.6176 537.942L53.8199 529.221L67.0832 521.995L80.8771 528.224L94.6436 535.82M41.6176 537.942L94.6436 535.82M94.6436 535.82L96.2626 544.681M96.2626 544.681L92.8141 549.903L93.3788 553.391M96.2626 561.115L92.8141 558.125L93.3788 553.391M42.0217 559.994L93.3788 553.391" stroke="#B7B7B7" stroke-width="5"/>
<path d="M18.6436 694.722L19.5997 708.128V723.078L15.0901 717.846L11.3765 708.128L5.80585 695.669L2.88791 683.958L4.21425 663.027L7.66272 652.313L15.0901 638.857L25.4355 614.937L30.2103 601.481L31.0061 592.013L32.5978 581.049L35.5157 576.066L40.2905 571.83L96.5271 572.577L99.4451 574.82L103.689 580.052L104.22 583.042L105.016 593.757L106.607 602.976L108.995 610.701L113.239 623.029L120.144 638.857L127.306 652.562L130.489 662.031L129.644 693.117L120.144 719.333L113.164 670.646L113.239 649.821L98.0826 640.422L110.644 653.06M18.6436 694.722L32.5978 719.333L49.6436 708.128L63.3687 686.45L69.4699 666.267L118.226 705.958L110.644 653.06M18.6436 694.722L15.6207 676.981L21.7218 675.237L31.8019 668.509L50.6436 678.136L66.5519 649.821L92.2829 629.984L96.5271 638.857L110.644 653.06" stroke="#B7B7B7" stroke-width="5"/>
<path d="M67.6656 521.458L61.3076 0.795898" stroke="#B7B7B7" stroke-width="5"/>
<path d="M41.6103 705.389L43.1436 677.066L51.6436 681.346L64.1436 658.267L68.1436 651.385L78.1436 643.894L80.6436 642.413L86.1436 638.009L89.6436 635.334L93.6436 651.385L95.6436 662.085L96.677 670.28L98.6436 689.59V705.389L92.0881 722.065L76.3547 729.087L54.7214 725.576L41.6103 705.389Z" fill="#9001B4"/>
</svg>
