<svg width="145" height="685" viewBox="0 0 145 685" fill="none" xmlns="http://www.w3.org/2000/svg">
<g clip-path="url(#clip0_264_178)">
<path d="M45.1782 531.16V534.187L53.6668 533.488L95.3137 534.187L100.619 535.118V524.64M45.1782 531.16L48.6267 528.598L46.3781 523.592M45.1782 531.16L100.619 524.64M45.1782 516.5L48.6267 521.845L45.1782 524.64L46.3781 523.592M45.1782 516.5L48.6267 514.161L46.9025 512.181L48 510.202H48.6267M45.1782 516.5L100.619 509.281M48.6267 510.202L45.974 502.983M48.6267 510.202L99 501M45.974 502.983L58.1763 494.833L71.4397 488.08L85.2336 493.902L99 501M45.974 502.983L99 501M99 501L100.619 509.281M100.619 509.281L97.1706 514.161L97.7352 517.421M100.619 524.64L97.1706 521.845L97.7352 517.421M46.3781 523.592L97.7352 517.421" stroke="#B7B7B7" stroke-width="5"/>
<path d="M17.0592 650.385L21.0382 663.425L23.9561 676L19.4466 671.11L11.4885 662.028L5.91794 650.385L3 639.441L4.32634 619.88L7.77481 609.867L15.7328 597.292L29.792 574.938L34.5668 562.363L35.3626 553.514L36.9542 543.268L39.8721 538.611L44.6469 534.652L100.884 535.351L103.802 537.447L108.046 542.337L108.576 545.131L109.372 555.144L110.964 563.76L113.351 570.979L119.718 582.156L130.328 597.758L137.49 610.566L140.674 619.414L142 631.989L127.676 626.633L117.595 607.538L103.006 610.566L97.9656 608.47M17.0592 650.385L34.8321 637.578L47.8302 656.672L67.7252 641.769L73.8263 622.907L96.6393 613.826L97.9656 608.47M17.0592 650.385L19.9771 632.92L26.0782 631.29L36.1584 625.003L47.2996 609.867L70.9084 607.538L83.376 586.581L91.0687 594.032L92.9256 607.538L97.9656 608.47" stroke="#B7B7B7" stroke-width="5"/>
<path d="M71.9303 487.58L65.6639 1" stroke="#B7B7B7" stroke-width="5"/>
<path d="M48 634.167L52.5889 612.021L72.5 609.817L79 599L83.7556 590.385L89 595L90 604L90.5 609.5L93.2333 609.817L99.7889 613.061L105.033 621.043L107 639.089V653.853L100.444 669.438L84.7111 676L63.0778 672.719L49.9667 653.853L48 634.167Z" fill="#9001B4"/>
</g>
<defs>
<clipPath id="clip0_264_178">
<rect width="145" height="685" fill="white"/>
</clipPath>
</defs>
</svg>
