<svg width="905" height="232" viewBox="0 0 905 232" fill="none" xmlns="http://www.w3.org/2000/svg">
<path d="M846.821 225.791L813.039 207.029L822.171 200.708L830.27 192.75L846.821 225.791Z" fill="#B7B7B7" stroke="#B7B7B7" stroke-width="5"/>
<path d="M836.799 8.02295L819.802 32.8774L815 23.9266L807.49 16.4042L836.799 8.02295Z" fill="#B7B7B7" stroke="#B7B7B7" stroke-width="5"/>
<path d="M886.995 51.5312L864.392 74.6739L860.078 64.7033L852.491 55.8032L886.995 51.5312Z" fill="#B7B7B7" stroke="#B7B7B7" stroke-width="5"/>
<path d="M896.938 134.059L864.021 141.732L867.12 131.88L866.938 121.345L896.938 134.059Z" fill="#B7B7B7" stroke="#B7B7B7" stroke-width="5"/>
<path d="M0.720215 36.6994L483.723 44.5982L605.947 50.5935L686.716 50.9065L702.535 50.9679C707.498 50.9871 712.485 50.4526 717.332 49.3906C728.698 46.9002 739.313 41.483 747.968 33.7064C752.29 29.8226 757.097 26.5156 762.27 23.868L771.117 19.3398C775.071 17.3159 779.303 15.8888 783.675 15.105L785.727 14.7372C791.059 13.7812 796.538 14.0445 801.754 15.5071L805.765 16.6318C808.552 17.4135 811.147 18.8677 813.281 20.8243C814.916 22.3238 816.284 24.1326 817.272 26.1195C818.02 27.625 818.556 29.2332 818.861 30.8866C819.557 34.6565 819.046 38.5625 817.399 42.0238L815.849 45.2775C814.466 47.8823 816.555 50.9751 819.488 50.664L828.377 49.7213C829.019 49.6532 829.667 49.6591 830.307 49.7388L838.629 50.7738C842.582 51.2655 846.4 52.5301 849.865 54.4954L850.194 54.6817C853.697 56.6687 856.741 59.3731 859.127 62.6179L861.628 67.2282C862.831 69.4471 863.457 71.9333 863.447 74.4576C863.434 77.9211 862.225 81.2738 860.026 83.9495L857.403 87.1406C856.062 88.7726 854.531 90.2394 852.843 91.5099L848.086 95.0906C844.999 97.0017 845.346 101.599 848.685 103.024L851.095 104.054C851.49 104.222 851.865 104.433 852.213 104.684L858.063 108.892C860.089 110.349 861.868 112.123 863.332 114.144C865.679 117.387 867.152 121.179 867.608 125.156L867.629 125.342C868.083 129.296 867.547 133.3 866.069 136.996L865.579 138.222C863.996 142.179 861.569 145.742 858.466 148.663L857.99 149.111C853.738 153.113 848.477 155.883 842.772 157.126L837.654 158.241C834.339 158.926 832.406 162.396 833.567 165.576L833.98 166.707C834.175 167.242 834.301 167.8 834.352 168.367L834.862 173.943C835.209 177.749 834.817 181.604 833.716 185.264C832.396 189.653 830.069 193.699 826.931 197.04C824.768 199.344 822.249 201.287 819.471 202.795L816.192 204.576C811.48 207.134 806.397 208.94 801.127 209.929C795.783 210.932 790.314 211.081 784.923 210.371L783.782 210.221C774.12 208.948 764.926 205.289 757.033 199.573L753.355 196.91C750.767 195.036 748.317 192.978 746.025 190.752L745.349 190.096C738.055 183.013 729.149 177.81 719.398 174.934C715.255 173.712 710.996 172.921 706.69 172.574L665.156 169.229L605.498 166.543L494.126 176.541L34.2201 194.095" stroke="#B7B7B7" stroke-width="5"/>
</svg>
