<svg width="1410" height="787" viewBox="0 0 1410 787" fill="none" xmlns="http://www.w3.org/2000/svg">
<path d="M28.4808 659.274L19 671.413V679.365L20.6488 686.063L28.4808 693.18L43.7325 698.202L61.4575 700.714L77.9459 707.83L91.1366 717.876L101.03 735.456L117.93 739.224L130.297 735.456L135.655 717.876V688.156L130.297 659.274L117.93 639.6L101.03 629.973H84.5412L65.1675 634.159L46.2058 644.623L28.4808 659.274Z" stroke="#B7B7B7" stroke-width="5"/>
<path d="M169.044 637.089L154.205 648.809L145.136 659.274V671.413L149.671 681.041L158.327 686.063H171.105L183.884 681.041L195.425 669.739L202.845 657.18V642.53L197.075 634.159L185.945 631.647L169.044 637.089Z" stroke="#B7B7B7" stroke-width="5"/>
<path d="M143.487 577.231L137.304 588.951L134.007 596.486V604.858L137.304 615.741L142.251 621.183L150.907 623.694L162.449 622.438L174.815 615.741L185.945 603.184L192.54 588.951V573.045L187.593 564.254L179.761 559.65H166.983L154.205 566.766L143.487 577.231Z" stroke="#B7B7B7" stroke-width="5"/>
<path d="M84.5413 557.975L83.3047 569.696V575.556L84.5413 581.416L89.0756 590.207L96.9075 596.485L105.152 597.741L111.335 595.649L117.106 592.299L124.525 583.928L129.884 573.882L134.007 555.464L131.121 541.651L124.525 531.604L117.106 527H110.51L102.678 529.512L94.4343 535.79L89.0756 544.581L84.5413 557.975Z" stroke="#B7B7B7" stroke-width="5"/>
<path d="M24.3588 588.951V604.857L25.5954 608.206L28.0686 613.648L32.603 619.926L38.3739 626.205L44.5571 627.461L50.7402 626.205L56.5111 622.856L61.8697 617.414L67.6407 609.462L69.2896 601.927V593.973V586.439L67.6407 577.649L61.8697 566.347L53.6256 561.324L44.5571 560.068L36.725 563.417L31.3663 570.533L26.8321 578.905L24.3588 588.951Z" stroke="#B7B7B7" stroke-width="5"/>
<path d="M277.481 579.274L268 591.413V599.365L269.649 606.063L277.481 613.18L292.733 618.202L310.457 620.714L326.946 627.83L340.137 637.876L350.029 655.456L366.93 659.224L379.297 655.456L384.655 637.876V608.156L379.297 579.274L366.93 559.6L350.029 549.973H333.541L314.167 554.159L295.206 564.623L277.481 579.274Z" stroke="#B7B7B7" stroke-width="5"/>
<path d="M418.044 557.089L403.205 568.809L394.136 579.274V591.413L398.671 601.041L407.327 606.063H420.105L432.884 601.041L444.425 589.739L451.845 577.18V562.53L446.075 554.159L434.945 551.647L418.044 557.089Z" stroke="#B7B7B7" stroke-width="5"/>
<path d="M392.487 497.231L386.304 508.951L383.007 516.486V524.857L386.304 535.741L391.251 541.182L399.907 543.694L411.449 542.438L423.815 535.741L434.945 523.183L441.54 508.951V493.045L436.593 484.254L428.761 479.65H415.983L403.205 486.766L392.487 497.231Z" stroke="#B7B7B7" stroke-width="5"/>
<path d="M333.541 477.975L332.305 489.696V495.556L333.541 501.416L338.075 510.207L345.907 516.486L354.152 517.741L360.335 515.648L366.106 512.3L373.525 503.928L378.884 493.882L383.007 475.464L380.121 461.651L373.525 451.604L366.106 447H359.511L351.679 449.512L343.434 455.79L338.075 464.581L333.541 477.975Z" stroke="#B7B7B7" stroke-width="5"/>
<path d="M273.359 508.951V524.857L274.595 528.206L277.069 533.648L281.603 539.926L287.374 546.205L293.557 547.461L299.74 546.205L305.511 542.857L310.87 537.415L316.641 529.462L318.289 521.927V513.974V506.439L316.641 497.649L310.87 486.347L302.625 481.324L293.557 480.068L285.725 483.417L280.366 490.533L275.832 498.905L273.359 508.951Z" stroke="#B7B7B7" stroke-width="5"/>
<path d="M660.481 579.274L651 591.413V599.365L652.649 606.063L660.481 613.18L675.733 618.202L693.457 620.714L709.946 627.83L723.137 637.876L733.029 655.456L749.93 659.224L762.297 655.456L767.655 637.876V608.156L762.297 579.274L749.93 559.6L733.029 549.973H716.541L697.167 554.159L678.206 564.623L660.481 579.274Z" stroke="#B7B7B7" stroke-width="5"/>
<path d="M801.044 557.089L786.205 568.809L777.136 579.274V591.413L781.671 601.041L790.327 606.063H803.105L815.884 601.041L827.425 589.739L834.845 577.18V562.53L829.075 554.159L817.945 551.647L801.044 557.089Z" stroke="#B7B7B7" stroke-width="5"/>
<path d="M775.487 497.231L769.304 508.951L766.007 516.486V524.857L769.304 535.741L774.251 541.182L782.907 543.694L794.449 542.438L806.815 535.741L817.945 523.183L824.54 508.951V493.045L819.593 484.254L811.761 479.65H798.983L786.205 486.766L775.487 497.231Z" stroke="#B7B7B7" stroke-width="5"/>
<path d="M716.541 477.975L715.305 489.696V495.556L716.541 501.416L721.075 510.207L728.907 516.486L737.152 517.741L743.335 515.648L749.106 512.3L756.525 503.928L761.884 493.882L766.007 475.464L763.121 461.651L756.525 451.604L749.106 447H742.511L734.679 449.512L726.434 455.79L721.075 464.581L716.541 477.975Z" stroke="#B7B7B7" stroke-width="5"/>
<path d="M656.359 508.951V524.857L657.595 528.206L660.069 533.648L664.603 539.926L670.374 546.205L676.557 547.461L682.74 546.205L688.511 542.857L693.87 537.415L699.641 529.462L701.289 521.927V513.974V506.439L699.641 497.649L693.87 486.347L685.625 481.324L676.557 480.068L668.725 483.417L663.366 490.533L658.832 498.905L656.359 508.951Z" stroke="#B7B7B7" stroke-width="5"/>
<path d="M609.481 296.274L600 308.413V316.365L601.649 323.063L609.481 330.18L624.733 335.202L642.457 337.714L658.946 344.83L672.137 354.876L682.029 372.456L698.93 376.224L711.297 372.456L716.655 354.876V325.156L711.297 296.274L698.93 276.6L682.029 266.973H665.541L646.167 271.159L627.206 281.623L609.481 296.274Z" stroke="#B7B7B7" stroke-width="5"/>
<path d="M750.044 274.089L735.205 285.809L726.136 296.274V308.413L730.671 318.041L739.327 323.063H752.105L764.884 318.041L776.425 306.739L783.845 294.18V279.53L778.075 271.159L766.945 268.647L750.044 274.089Z" stroke="#B7B7B7" stroke-width="5"/>
<path d="M724.487 214.231L718.304 225.951L715.007 233.486V241.857L718.304 252.741L723.251 258.182L731.907 260.694L743.449 259.438L755.815 252.741L766.945 240.183L773.54 225.951V210.045L768.593 201.254L760.761 196.65H747.983L735.205 203.766L724.487 214.231Z" stroke="#B7B7B7" stroke-width="5"/>
<path d="M665.541 194.975L664.305 206.696V212.556L665.541 218.416L670.075 227.207L677.907 233.486L686.152 234.741L692.335 232.648L698.106 229.3L705.525 220.928L710.884 210.882L715.007 192.464L712.121 178.651L705.525 168.604L698.106 164H691.511L683.679 166.512L675.434 172.79L670.075 181.581L665.541 194.975Z" stroke="#B7B7B7" stroke-width="5"/>
<path d="M605.359 225.951V241.857L606.595 245.206L609.069 250.648L613.603 256.926L619.374 263.205L625.557 264.461L631.74 263.205L637.511 259.857L642.87 254.415L648.641 246.462L650.289 238.927V230.974V223.439L648.641 214.649L642.87 203.347L634.625 198.324L625.557 197.068L617.725 200.417L612.366 207.533L607.832 215.905L605.359 225.951Z" stroke="#B7B7B7" stroke-width="5"/>
<path d="M972.481 296.274L963 308.413V316.365L964.649 323.063L972.481 330.18L987.733 335.202L1005.46 337.714L1021.95 344.83L1035.14 354.876L1045.03 372.456L1061.93 376.224L1074.3 372.456L1079.66 354.876V325.156L1074.3 296.274L1061.93 276.6L1045.03 266.973H1028.54L1009.17 271.159L990.206 281.623L972.481 296.274Z" stroke="#B7B7B7" stroke-width="5"/>
<path d="M1113.04 274.089L1098.2 285.809L1089.14 296.274V308.413L1093.67 318.041L1102.33 323.063H1115.11L1127.88 318.041L1139.43 306.739L1146.85 294.18V279.53L1141.07 271.159L1129.94 268.647L1113.04 274.089Z" stroke="#B7B7B7" stroke-width="5"/>
<path d="M1087.49 214.231L1081.3 225.951L1078.01 233.486V241.857L1081.3 252.741L1086.25 258.182L1094.91 260.694L1106.45 259.438L1118.82 252.741L1129.94 240.183L1136.54 225.951V210.045L1131.59 201.254L1123.76 196.65H1110.98L1098.2 203.766L1087.49 214.231Z" stroke="#B7B7B7" stroke-width="5"/>
<path d="M1028.54 194.975L1027.3 206.696V212.556L1028.54 218.416L1033.08 227.207L1040.91 233.486L1049.15 234.741L1055.33 232.648L1061.11 229.3L1068.53 220.928L1073.88 210.882L1078.01 192.464L1075.12 178.651L1068.53 168.604L1061.11 164H1054.51L1046.68 166.512L1038.43 172.79L1033.08 181.581L1028.54 194.975Z" stroke="#B7B7B7" stroke-width="5"/>
<path d="M968.359 225.951V241.857L969.595 245.206L972.069 250.648L976.603 256.926L982.374 263.205L988.557 264.461L994.74 263.205L1000.51 259.857L1005.87 254.415L1011.64 246.462L1013.29 238.927V230.974V223.439L1011.64 214.649L1005.87 203.347L997.625 198.324L988.557 197.068L980.725 200.417L975.366 207.533L970.832 215.905L968.359 225.951Z" stroke="#B7B7B7" stroke-width="5"/>
<path d="M1213.48 225.274L1204 237.413V245.365L1205.65 252.063L1213.48 259.18L1228.73 264.202L1246.46 266.714L1262.95 273.83L1276.14 283.876L1286.03 301.456L1302.93 305.224L1315.3 301.456L1320.66 283.876V254.156L1315.3 225.274L1302.93 205.6L1286.03 195.973H1269.54L1250.17 200.159L1231.21 210.623L1213.48 225.274Z" stroke="#B7B7B7" stroke-width="5"/>
<path d="M1354.04 203.089L1339.2 214.809L1330.14 225.274V237.413L1334.67 247.041L1343.33 252.063H1356.11L1368.88 247.041L1380.43 235.739L1387.85 223.18V208.53L1382.07 200.159L1370.94 197.647L1354.04 203.089Z" stroke="#B7B7B7" stroke-width="5"/>
<path d="M1328.49 143.231L1322.3 154.951L1319.01 162.486V170.857L1322.3 181.741L1327.25 187.182L1335.91 189.694L1347.45 188.438L1359.82 181.741L1370.94 169.183L1377.54 154.951V139.045L1372.59 130.254L1364.76 125.65H1351.98L1339.2 132.766L1328.49 143.231Z" stroke="#B7B7B7" stroke-width="5"/>
<path d="M1269.54 123.975L1268.3 135.696V141.556L1269.54 147.416L1274.08 156.207L1281.91 162.486L1290.15 163.741L1296.33 161.648L1302.11 158.3L1309.53 149.928L1314.88 139.882L1319.01 121.464L1316.12 107.651L1309.53 97.6045L1302.11 93H1295.51L1287.68 95.5115L1279.43 101.79L1274.08 110.581L1269.54 123.975Z" stroke="#B7B7B7" stroke-width="5"/>
<path d="M1209.36 154.951V170.857L1210.6 174.206L1213.07 179.648L1217.6 185.926L1223.37 192.205L1229.56 193.461L1235.74 192.205L1241.51 188.857L1246.87 183.415L1252.64 175.462L1254.29 167.927V159.974V152.439L1252.64 143.649L1246.87 132.347L1238.63 127.324L1229.56 126.068L1221.72 129.417L1216.37 136.533L1211.83 144.905L1209.36 154.951Z" stroke="#B7B7B7" stroke-width="5"/>
</svg>
