<svg width="1706" height="760" viewBox="0 0 1706 760" fill="none" xmlns="http://www.w3.org/2000/svg">
<path d="M74.2981 396.846L187.429 204.655L195.848 190.352L215.791 156.472L572.021 366.162L552.078 400.042L543.978 413.803L430.528 606.536L74.2981 396.846Z" stroke="#B7B7B7" stroke-width="5"/>
<path d="M252.484 382.08C235.412 410.587 197.655 419.525 168.094 401.821C138.533 384.118 128.589 346.613 145.661 318.106C162.733 289.599 200.49 280.661 230.051 298.365C259.613 316.068 269.557 353.573 252.484 382.08Z" stroke="#B7B7B7" stroke-width="5"/>
<path d="M221.181 363.53C214.367 374.908 199.15 378.516 187.12 371.312C175.091 364.108 171.089 348.99 177.903 337.612C184.717 326.234 199.934 322.626 211.963 329.83C223.993 337.034 227.995 352.152 221.181 363.53Z" fill="#9001B4" stroke="#B7B7B7" stroke-width="5"/>
<path d="M435.003 488.985C428.099 500.513 412.683 504.168 400.498 496.87C388.313 489.573 384.257 474.257 391.161 462.729C398.065 451.201 413.481 447.547 425.666 454.844C437.851 462.142 441.907 477.457 435.003 488.985Z" fill="#9001B4" stroke="#B7B7B7" stroke-width="5"/>
<path d="M506.564 423.751C502.763 430.099 494.058 432.165 487.01 427.944C479.961 423.723 477.674 415.074 481.475 408.726C485.276 402.379 493.981 400.312 501.029 404.534C508.078 408.755 510.365 417.404 506.564 423.751Z" fill="#9001B4" stroke="#B7B7B7" stroke-width="5"/>
<path d="M217.264 253.416C213.462 259.764 204.758 261.83 197.709 257.609C190.66 253.388 188.373 244.739 192.174 238.391C195.976 232.044 204.68 229.977 211.729 234.199C218.778 238.42 221.065 247.069 217.264 253.416Z" fill="#9001B4" stroke="#B7B7B7" stroke-width="5"/>
<path d="M465.541 507.493C448.469 536 410.712 544.938 381.151 527.234C351.589 509.531 341.646 472.026 358.718 443.519C375.79 415.012 413.547 406.074 443.108 423.778C472.669 441.481 482.613 478.986 465.541 507.493Z" stroke="#B7B7B7" stroke-width="5"/>
<path d="M240.057 207.252L228.438 226.654L268.32 250.539L279.94 231.137L240.057 207.252Z" fill="#9001B4" stroke="#B7B7B7" stroke-width="5"/>
<path d="M288.074 235.26L276.455 254.662L295.09 265.822L306.709 246.42L288.074 235.26Z" fill="#9001B4" stroke="#B7B7B7" stroke-width="5"/>
<path d="M314.297 250.695L302.677 270.098L321.312 281.258L332.932 261.856L314.297 250.695Z" fill="#9001B4" stroke="#B7B7B7" stroke-width="5"/>
<path d="M220.389 455.818L302.872 315.691L389.325 366.58L306.841 506.707L220.389 455.818Z" stroke="#B7B7B7" stroke-width="5"/>
<path d="M265.708 376.017L354.208 428.111" stroke="#B7B7B7" stroke-width="5"/>
<path d="M246.172 409.205L334.673 461.3" stroke="#B7B7B7" stroke-width="5"/>
<rect x="304.003" y="324.08" width="16.1649" height="50.3966" transform="rotate(30.4826 304.003 324.08)" fill="#9001B4"/>
<rect x="320.392" y="333.728" width="16.1649" height="50.3966" transform="rotate(30.4826 320.392 333.728)" fill="#9001B4"/>
<rect x="336.781" y="343.375" width="16.1649" height="50.3966" transform="rotate(30.4826 336.781 343.375)" fill="#9001B4"/>
<rect x="256.25" y="405.206" width="16.1649" height="89.3827" transform="rotate(-59.5174 256.25 405.206)" fill="#9001B4"/>
<rect x="227.791" y="453.554" width="4.7544" height="89.3827" transform="rotate(-59.5174 227.791 453.554)" fill="#9001B4"/>
<path d="M187.878 206.25L545.149 414.227" stroke="#B7B7B7" stroke-width="5"/>
<path d="M1141.83 378.18L1267.55 193.978L1276.91 180.27L1299.07 147.798L1640.49 380.823L1618.33 413.295L1609.33 426.484L1483.25 611.205L1141.83 378.18Z" stroke="#B7B7B7" stroke-width="5"/>
<path d="M1320.6 375.353C1301.67 402.656 1263.39 409.05 1235.08 389.411C1206.77 369.772 1199.35 331.687 1218.29 304.384C1237.23 277.082 1275.5 270.687 1303.81 290.326C1332.13 309.965 1339.54 348.051 1320.6 375.353Z" stroke="#B7B7B7" stroke-width="5"/>
<path d="M1290.61 354.753C1283.05 365.65 1267.63 368.234 1256.11 360.242C1244.58 352.25 1241.6 336.899 1249.16 326.001C1256.72 315.104 1272.14 312.52 1283.66 320.512C1295.19 328.504 1298.17 343.856 1290.61 354.753Z" fill="#9001B4" stroke="#B7B7B7" stroke-width="5"/>
<path d="M1495.57 494.216C1487.91 505.257 1472.29 507.873 1460.62 499.778C1448.95 491.683 1445.92 476.131 1453.58 465.09C1461.24 454.048 1476.87 451.433 1488.54 459.528C1500.21 467.623 1503.23 483.175 1495.57 494.216Z" fill="#9001B4" stroke="#B7B7B7" stroke-width="5"/>
<path d="M1571.33 433.91C1567.11 439.989 1558.29 441.469 1551.54 436.786C1544.79 432.103 1543.09 423.321 1547.3 417.241C1551.52 411.162 1560.34 409.682 1567.09 414.365C1573.84 419.048 1575.55 427.83 1571.33 433.91Z" fill="#9001B4" stroke="#B7B7B7" stroke-width="5"/>
<path d="M1294.06 244.624C1289.84 250.704 1281.02 252.184 1274.27 247.501C1267.52 242.818 1265.81 234.036 1270.03 227.956C1274.25 221.877 1283.07 220.397 1289.82 225.08C1296.57 229.763 1298.28 238.545 1294.06 244.624Z" fill="#9001B4" stroke="#B7B7B7" stroke-width="5"/>
<path d="M1524.8 514.722C1505.87 542.025 1467.6 548.42 1439.28 528.78C1410.97 509.141 1403.56 471.056 1422.49 443.753C1441.43 416.451 1479.7 410.056 1508.02 429.695C1536.33 449.334 1543.74 487.42 1524.8 514.722Z" stroke="#B7B7B7" stroke-width="5"/>
<path d="M1319.89 200.086L1307 218.669L1345.19 245.165L1358.08 226.582L1319.89 200.086Z" fill="#9001B4" stroke="#B7B7B7" stroke-width="5"/>
<path d="M1365.92 231.24L1353.03 249.823L1370.88 262.203L1383.77 243.621L1365.92 231.24Z" fill="#9001B4" stroke="#B7B7B7" stroke-width="5"/>
<path d="M1391.06 248.394L1378.17 266.976L1396.01 279.357L1408.9 260.774L1391.06 248.394Z" fill="#9001B4" stroke="#B7B7B7" stroke-width="5"/>
<path d="M1283.65 446.781L1375.32 312.479L1458.17 369.031L1366.51 503.333L1283.65 446.781Z" stroke="#B7B7B7" stroke-width="5"/>
<path d="M1334.2 370.188L1419.02 428.079" stroke="#B7B7B7" stroke-width="5"/>
<path d="M1312.49 401.995L1397.32 459.887" stroke="#B7B7B7" stroke-width="5"/>
<rect x="1375.88" y="320.926" width="16.1649" height="50.3966" transform="rotate(34.314 1375.88 320.926)" fill="#9001B4"/>
<rect x="1391.59" y="331.646" width="16.1649" height="50.3966" transform="rotate(34.314 1391.59 331.646)" fill="#9001B4"/>
<rect x="1407.3" y="342.367" width="16.1649" height="50.3966" transform="rotate(34.314 1407.3 342.367)" fill="#9001B4"/>
<rect x="1322.82" y="398.679" width="16.1649" height="89.3827" transform="rotate(-55.686 1322.82 398.679)" fill="#9001B4"/>
<rect x="1291.19" y="445.017" width="4.7544" height="89.3827" transform="rotate(-55.686 1291.19 445.017)" fill="#9001B4"/>
<path d="M1267.89 195.6L1610.47 426.984" stroke="#B7B7B7" stroke-width="5"/>
<path d="M1107.08 385.147L1085.01 417.682C1079.08 426.42 1074.79 436.158 1072.33 446.426L1068.18 463.741C1065.07 476.74 1060.56 489.364 1054.73 501.392L1052.62 505.729C1043.27 525.015 1031.27 542.895 1016.95 558.848L1014.31 561.787C1003.31 574.051 991.149 585.231 978.007 595.171L950.499 615.977L859.809 576.406L769.837 522.913L683.589 456.745L608.412 383.927L623.628 324.907L625.544 320.007C639.081 285.385 660.799 254.556 688.842 230.153L719.932 208.772C728.969 202.557 736.766 194.709 742.923 185.633L764.993 153.097L843.371 190.31C911.462 222.638 974.429 264.802 1030.25 315.448L1107.08 385.147Z" stroke="#B7B7B7" stroke-width="5"/>
<path d="M787.178 380.591C768.318 407.947 730.066 414.451 701.698 394.893C673.33 375.334 665.805 337.27 684.666 309.914C703.527 282.557 741.779 276.053 770.147 295.612C798.515 315.17 806.039 353.234 787.178 380.591Z" stroke="#B7B7B7" stroke-width="5"/>
<path d="M757.125 360.076C749.597 370.995 734.181 373.623 722.637 365.664C711.093 357.705 708.067 342.362 715.595 331.443C723.123 320.524 738.539 317.897 750.083 325.855C761.627 333.814 764.653 349.157 757.125 360.076Z" fill="#9001B4" stroke="#B7B7B7" stroke-width="5"/>
<path d="M962.484 498.953C954.857 510.015 939.239 512.676 927.545 504.614C915.852 496.552 912.784 481.009 920.412 469.946C928.039 458.883 943.657 456.222 955.35 464.284C967.044 472.346 970.111 487.89 962.484 498.953Z" fill="#9001B4" stroke="#B7B7B7" stroke-width="5"/>
<path d="M1038.07 438.431C1033.87 444.522 1025.05 446.027 1018.29 441.364C1011.52 436.7 1009.8 427.922 1014 421.831C1018.19 415.74 1027.01 414.234 1033.78 418.898C1040.54 423.562 1042.27 432.339 1038.07 438.431Z" fill="#9001B4" stroke="#B7B7B7" stroke-width="5"/>
<path d="M760.261 249.937C756.061 256.029 747.242 257.534 740.478 252.87C733.714 248.207 731.985 239.429 736.184 233.338C740.384 227.247 749.203 225.741 755.967 230.405C762.731 235.069 764.46 243.846 760.261 249.937Z" fill="#9001B4" stroke="#B7B7B7" stroke-width="5"/>
<path d="M991.776 519.376C972.915 546.732 934.663 553.236 906.295 533.678C877.927 514.119 870.403 476.055 889.264 448.699C908.124 421.342 946.376 414.838 974.744 434.397C1003.11 453.955 1010.64 492.019 991.776 519.376Z" stroke="#B7B7B7" stroke-width="5"/>
<path d="M777.926 192.804L769.683 213.864L812.973 230.808L821.216 209.748L777.926 192.804Z" fill="#9001B4" stroke="#B7B7B7" stroke-width="5"/>
<path d="M831.728 213.803L820.737 233.568L839.721 244.124L850.712 224.359L831.728 213.803Z" fill="#9001B4" stroke="#B7B7B7" stroke-width="5"/>
<path d="M859.482 228.896L847.731 248.219L866.29 259.506L878.042 240.183L859.482 228.896Z" fill="#9001B4" stroke="#B7B7B7" stroke-width="5"/>
<path d="M750.431 452.124L841.71 317.562L924.73 373.877L833.451 508.439L750.431 452.124Z" stroke="#B7B7B7" stroke-width="5"/>
<path d="M800.762 375.386L885.749 433.035" stroke="#B7B7B7" stroke-width="5"/>
<path d="M779.143 407.256L864.13 464.906" stroke="#B7B7B7" stroke-width="5"/>
<rect x="842.301" y="326.006" width="16.1649" height="50.3966" transform="rotate(34.1505 842.301 326.006)" fill="#9001B4"/>
<rect x="858.04" y="336.682" width="16.1649" height="50.3966" transform="rotate(34.1505 858.04 336.682)" fill="#9001B4"/>
<rect x="873.778" y="347.357" width="16.1649" height="50.3966" transform="rotate(34.1505 873.778 347.357)" fill="#9001B4"/>
<rect x="789.456" y="403.91" width="16.1649" height="89.3827" transform="rotate(-55.8495 789.456 403.91)" fill="#9001B4"/>
<rect x="757.962" y="450.339" width="4.7544" height="89.3827" transform="rotate(-55.8495 757.962 450.339)" fill="#9001B4"/>
<path d="M733.952 200.988L828.807 238.126L908.692 283.487C916.553 287.951 924.075 292.988 931.196 298.558L1006.49 357.447L1077.19 431.395" stroke="#B7B7B7" stroke-width="5"/>
</svg>
