<svg width="1657" height="649" viewBox="0 0 1657 649" fill="none" xmlns="http://www.w3.org/2000/svg">
<path d="M237.033 568.213L85.6655 404.433L74.401 392.245L47.717 363.373L351.286 82.8097L377.97 111.682L388.808 123.409L540.602 287.65L237.033 568.213Z" stroke="#B7B7B7" stroke-width="5"/>
<path d="M274.316 393.346C296.683 417.918 294.345 456.648 268.864 479.843C243.383 503.038 204.604 501.736 182.237 477.164C159.869 452.591 162.207 413.861 187.688 390.666C213.169 367.472 251.948 368.774 274.316 393.346Z" stroke="#B7B7B7" stroke-width="5"/>
<path d="M247.522 417.964C256.449 427.772 255.513 443.383 245.144 452.821C234.775 462.26 219.145 461.729 210.217 451.921C201.29 442.114 202.226 426.503 212.595 417.064C222.964 407.626 238.594 408.157 247.522 417.964Z" fill="#9001B4" stroke="#B7B7B7" stroke-width="5"/>
<path d="M429.344 249.442C438.389 259.379 437.439 275.194 426.936 284.755C416.433 294.315 400.598 293.779 391.553 283.842C382.508 273.905 383.458 258.09 393.961 248.529C404.464 238.968 420.299 239.505 429.344 249.442Z" fill="#9001B4" stroke="#B7B7B7" stroke-width="5"/>
<path d="M387.536 162.101C392.517 167.572 391.983 176.503 385.908 182.033C379.832 187.564 370.891 187.258 365.91 181.787C360.93 176.315 361.463 167.385 367.539 161.854C373.615 156.323 382.556 156.63 387.536 162.101Z" fill="#9001B4" stroke="#B7B7B7" stroke-width="5"/>
<path d="M140.962 389.939C145.943 395.41 145.409 404.34 139.333 409.871C133.257 415.402 124.316 415.096 119.336 409.625C114.356 404.153 114.889 395.223 120.965 389.692C127.041 384.161 135.982 384.467 140.962 389.939Z" fill="#9001B4" stroke="#B7B7B7" stroke-width="5"/>
<path d="M455.877 225.544C478.244 250.117 475.906 288.847 450.425 312.041C424.944 335.236 386.165 333.934 363.797 309.362C341.43 284.789 343.768 246.059 369.249 222.865C394.73 199.67 433.509 200.972 455.877 225.544Z" stroke="#B7B7B7" stroke-width="5"/>
<path d="M103.34 354.793L118.564 371.517L152.941 340.224L137.718 323.5L103.34 354.793Z" fill="#9001B4" stroke="#B7B7B7" stroke-width="5"/>
<path d="M144.013 316.901L159.236 333.626L175.299 319.004L160.076 302.279L144.013 316.901Z" fill="#9001B4" stroke="#B7B7B7" stroke-width="5"/>
<path d="M166.359 296.249L181.582 312.973L197.646 298.352L182.422 281.627L166.359 296.249Z" fill="#9001B4" stroke="#B7B7B7" stroke-width="5"/>
<path d="M335.654 445.354L225.292 325.942L298.964 257.854L409.326 377.265L335.654 445.354Z" stroke="#B7B7B7" stroke-width="5"/>
<path d="M272.326 378.936L347.744 309.233" stroke="#B7B7B7" stroke-width="5"/>
<path d="M298.465 407.217L373.883 337.514" stroke="#B7B7B7" stroke-width="5"/>
<rect x="233.651" y="327.281" width="16.1649" height="50.3966" transform="rotate(-42.7446 233.651 327.281)" fill="#9001B4"/>
<rect x="247.617" y="314.373" width="16.1649" height="50.3966" transform="rotate(-42.7446 247.617 314.373)" fill="#9001B4"/>
<rect x="261.583" y="301.466" width="16.1649" height="50.3966" transform="rotate(-42.7446 261.583 301.466)" fill="#9001B4"/>
<rect x="297.545" y="396.414" width="16.1649" height="89.3827" transform="rotate(-132.745 297.545 396.414)" fill="#9001B4"/>
<rect x="335.623" y="437.614" width="4.7544" height="89.3827" transform="rotate(-132.745 335.623 437.614)" fill="#9001B4"/>
<path d="M87.3224 404.462L389.551 122.409" stroke="#B7B7B7" stroke-width="5"/>
<path d="M1305.03 566.213L1153.67 402.433L1142.4 390.245L1115.72 361.373L1419.29 80.8097L1445.97 109.682L1456.81 121.409L1608.6 285.65L1305.03 566.213Z" stroke="#B7B7B7" stroke-width="5"/>
<path d="M1342.32 391.346C1364.68 415.918 1362.35 454.648 1336.86 477.843C1311.38 501.038 1272.6 499.736 1250.24 475.164C1227.87 450.591 1230.21 411.861 1255.69 388.666C1281.17 365.472 1319.95 366.774 1342.32 391.346Z" stroke="#B7B7B7" stroke-width="5"/>
<path d="M1315.52 415.964C1324.45 425.772 1323.51 441.383 1313.14 450.821C1302.77 460.26 1287.15 459.729 1278.22 449.921C1269.29 440.114 1270.23 424.503 1280.6 415.064C1290.96 405.626 1306.59 406.157 1315.52 415.964Z" fill="#9001B4" stroke="#B7B7B7" stroke-width="5"/>
<path d="M1497.34 247.442C1506.39 257.379 1505.44 273.194 1494.94 282.755C1484.43 292.315 1468.6 291.779 1459.55 281.842C1450.51 271.905 1451.46 256.09 1461.96 246.529C1472.46 236.968 1488.3 237.505 1497.34 247.442Z" fill="#9001B4" stroke="#B7B7B7" stroke-width="5"/>
<path d="M1455.54 160.101C1460.52 165.572 1459.98 174.503 1453.91 180.033C1447.83 185.564 1438.89 185.258 1433.91 179.787C1428.93 174.315 1429.46 165.385 1435.54 159.854C1441.61 154.323 1450.56 154.63 1455.54 160.101Z" fill="#9001B4" stroke="#B7B7B7" stroke-width="5"/>
<path d="M1208.96 387.939C1213.94 393.41 1213.41 402.34 1207.33 407.871C1201.26 413.402 1192.32 413.096 1187.34 407.625C1182.36 402.153 1182.89 393.223 1188.96 387.692C1195.04 382.161 1203.98 382.467 1208.96 387.939Z" fill="#9001B4" stroke="#B7B7B7" stroke-width="5"/>
<path d="M1523.88 223.544C1546.24 248.117 1543.91 286.847 1518.42 310.041C1492.94 333.236 1454.16 331.934 1431.8 307.362C1409.43 282.789 1411.77 244.059 1437.25 220.865C1462.73 197.67 1501.51 198.972 1523.88 223.544Z" stroke="#B7B7B7" stroke-width="5"/>
<path d="M1171.34 352.793L1186.56 369.517L1220.94 338.224L1205.72 321.5L1171.34 352.793Z" fill="#9001B4" stroke="#B7B7B7" stroke-width="5"/>
<path d="M1212.01 314.901L1227.24 331.626L1243.3 317.004L1228.08 300.279L1212.01 314.901Z" fill="#9001B4" stroke="#B7B7B7" stroke-width="5"/>
<path d="M1234.36 294.249L1249.58 310.973L1265.65 296.352L1250.42 279.627L1234.36 294.249Z" fill="#9001B4" stroke="#B7B7B7" stroke-width="5"/>
<path d="M1403.65 443.354L1293.29 323.942L1366.96 255.854L1477.33 375.265L1403.65 443.354Z" stroke="#B7B7B7" stroke-width="5"/>
<path d="M1340.33 376.936L1415.74 307.233" stroke="#B7B7B7" stroke-width="5"/>
<path d="M1366.46 405.217L1441.88 335.514" stroke="#B7B7B7" stroke-width="5"/>
<rect x="1301.65" y="325.281" width="16.1649" height="50.3966" transform="rotate(-42.7446 1301.65 325.281)" fill="#9001B4"/>
<rect x="1315.62" y="312.373" width="16.1649" height="50.3966" transform="rotate(-42.7446 1315.62 312.373)" fill="#9001B4"/>
<rect x="1329.58" y="299.466" width="16.1649" height="50.3966" transform="rotate(-42.7446 1329.58 299.466)" fill="#9001B4"/>
<rect x="1365.54" y="394.414" width="16.1649" height="89.3827" transform="rotate(-132.745 1365.54 394.414)" fill="#9001B4"/>
<rect x="1403.62" y="435.614" width="4.7544" height="89.3827" transform="rotate(-132.745 1403.62 435.614)" fill="#9001B4"/>
<path d="M1155.32 402.462L1457.55 120.409" stroke="#B7B7B7" stroke-width="5"/>
<path d="M889.33 81.2383L916.014 110.11C923.18 117.864 931.691 124.257 941.134 128.979L957.058 136.942C969.014 142.92 980.286 150.176 990.678 158.583L994.425 161.615C1011.09 175.095 1025.78 190.845 1038.07 208.404L1040.34 211.639C1049.79 225.139 1057.92 239.515 1064.62 254.569L1078.65 286.078L1019.54 365.433L947.044 440.934L863.044 509.933L775.077 566.641L721.044 538.44L716.706 535.463C686.055 514.429 660.953 486.286 643.544 453.44L629.769 418.313C625.764 408.102 619.889 398.728 612.445 390.674L585.761 361.802L639.776 293.902C686.701 234.915 742.043 183.147 804.028 140.259L889.33 81.2383Z" stroke="#B7B7B7" stroke-width="5"/>
<path d="M812.36 391.775C834.727 416.347 832.389 455.077 806.908 478.272C781.427 501.467 742.648 500.165 720.281 475.592C697.913 451.02 700.251 412.29 725.732 389.095C751.213 365.9 789.992 367.202 812.36 391.775Z" stroke="#B7B7B7" stroke-width="5"/>
<path d="M785.566 416.394C794.493 426.202 793.557 441.812 783.188 451.251C772.819 460.689 757.189 460.159 748.262 450.351C739.334 440.543 740.27 424.933 750.639 415.494C761.008 406.055 776.638 406.586 785.566 416.394Z" fill="#9001B4" stroke="#B7B7B7" stroke-width="5"/>
<path d="M967.388 247.872C976.433 257.809 975.483 273.623 964.98 283.184C954.477 292.745 938.642 292.209 929.597 282.272C920.552 272.335 921.502 256.52 932.005 246.959C942.508 237.398 958.342 237.935 967.388 247.872Z" fill="#9001B4" stroke="#B7B7B7" stroke-width="5"/>
<path d="M925.58 160.531C930.561 166.002 930.027 174.932 923.952 180.463C917.876 185.994 908.935 185.688 903.954 180.216C898.974 174.745 899.507 165.815 905.583 160.284C911.659 154.753 920.6 155.059 925.58 160.531Z" fill="#9001B4" stroke="#B7B7B7" stroke-width="5"/>
<path d="M679.006 388.368C683.987 393.84 683.453 402.77 677.377 408.301C671.301 413.832 662.36 413.526 657.38 408.054C652.4 402.583 652.933 393.653 659.009 388.122C665.085 382.591 674.026 382.897 679.006 388.368Z" fill="#9001B4" stroke="#B7B7B7" stroke-width="5"/>
<path d="M993.92 223.974C1016.29 248.546 1013.95 287.276 988.469 310.471C962.988 333.666 924.209 332.364 901.841 307.791C879.474 283.219 881.812 244.489 907.293 221.294C932.774 198.099 971.553 199.402 993.92 223.974Z" stroke="#B7B7B7" stroke-width="5"/>
<path d="M627.366 358.209L646.008 371.012L672.326 332.692L653.684 319.888L627.366 358.209Z" fill="#9001B4" stroke="#B7B7B7" stroke-width="5"/>
<path d="M660.017 310.569L676.775 325.755L691.361 309.659L674.602 294.473L660.017 310.569Z" fill="#9001B4" stroke="#B7B7B7" stroke-width="5"/>
<path d="M681.011 286.96L697.166 302.786L712.367 287.27L696.211 271.443L681.011 286.96Z" fill="#9001B4" stroke="#B7B7B7" stroke-width="5"/>
<path d="M873.699 443.784L763.337 324.372L837.009 256.283L947.371 375.695L873.699 443.784Z" stroke="#B7B7B7" stroke-width="5"/>
<path d="M810.371 377.365L885.789 307.663" stroke="#B7B7B7" stroke-width="5"/>
<path d="M836.509 405.646L911.927 335.944" stroke="#B7B7B7" stroke-width="5"/>
<rect x="771.695" y="325.711" width="16.1649" height="50.3966" transform="rotate(-42.7446 771.695 325.711)" fill="#9001B4"/>
<rect x="785.661" y="312.803" width="16.1649" height="50.3966" transform="rotate(-42.7446 785.661 312.803)" fill="#9001B4"/>
<rect x="799.628" y="299.896" width="16.1649" height="50.3966" transform="rotate(-42.7446 799.628 299.896)" fill="#9001B4"/>
<rect x="835.589" y="394.844" width="16.1649" height="89.3827" transform="rotate(-132.745 835.589 394.844)" fill="#9001B4"/>
<rect x="873.667" y="436.044" width="4.7544" height="89.3827" transform="rotate(-132.745 873.667 436.044)" fill="#9001B4"/>
<path d="M625.367 402.893L683.045 318.93L745.337 251.41C751.467 244.765 758.079 238.582 765.117 232.909L839.545 172.93L927.596 120.839" stroke="#B7B7B7" stroke-width="5"/>
</svg>
