<svg width="250" height="399" viewBox="0 0 250 399" fill="none" xmlns="http://www.w3.org/2000/svg">
<path d="M2 292.487L81.9715 290.653L74.1368 260.269H110.018L111.652 240.909L137.445 236.184L136.612 226.347L134.714 200H249" stroke="#B7B7B7" stroke-width="1.62098"/>
<path d="M2.40901 119.852L1 108.041H37.519V82.1552L127.166 80.6982L119.332 53.9858H155.213L156.846 36.9655L182.64 32.8117L181.806 24.1633L179.909 1H249" stroke="#B7B7B7" stroke-width="1.62098"/>
<path d="M249 199.698H125.779L133.613 172.986H97.7316L96.0983 155.965L70.3045 151.812L71.1384 143.163L73.0356 120H1" stroke="#B7B7B7" stroke-width="1.62098"/>
<path d="M249 398L132.141 393.882L139.976 359.734H104.094L102.461 337.976L76.6668 332.667L77.5007 321.611L79.3979 292H3.00041" stroke="#B7B7B7" stroke-width="1.62098"/>
</svg>
