<svg width="1399" height="206" viewBox="0 0 1399 206" fill="none" xmlns="http://www.w3.org/2000/svg">
<path d="M107.451 50.5369V180.035H88.5223V50.5369V25.5369H63.5223H25V25H133.13V25.5369H132.451H107.451V50.5369Z" stroke="#9001B4" stroke-width="50"/>
<path d="M371.476 139.069V180.035H226.636V160.728H312.973H337.973V135.728V114.069V89.069H312.973H300.861V63.5321V38.5321H275.861H259.109V28.8782V25H339.003V114.069V139.069H364.003H371.476Z" stroke="#9001B4" stroke-width="50"/>
<path d="M556.97 41.7649L533.478 53.7304V49.4412V25H542.248L556.97 41.7649ZM428.275 58.4545L455.09 26.1002V49.4412V138.144V163.144H480.09H540.206H550.951L539.988 180.035H458.255L428.275 131.096V58.4545ZM569.828 134.061L565.206 141.182V138.144V134.061H569.828Z" stroke="#9001B4" stroke-width="50"/>
<path d="M774.752 53.6264V76.9513H753.747V44.6037V30.1781L744.789 25H750.995L774.752 53.6264ZM656.061 25H664.597L655.464 30.5771V44.6037V76.9513H628.779V54.413L656.061 25Z" stroke="#9001B4" stroke-width="50"/>
<path d="M774.752 151.406V126.953H753.747V146.997H731.121V159.938V180.037H752.634L774.752 151.406ZM628.779 149.838L655.464 177.472V159.938V126.953H628.779V149.838Z" stroke="#9001B4" stroke-width="50"/>
<path d="M915.097 180.035H867.025V122.45V108.773L912.007 122.199L975.255 141.078V159.967L915.097 180.035ZM909.655 75.12L855.318 97.4497H842.025H835.056H831.548V25H914.578L975.255 48.0017V48.1612L909.655 75.12Z" stroke="#9001B4" stroke-width="50"/>
<path d="M1072.89 113.281V108.983L1141.73 180.035H1072.89V113.281ZM1072.89 25H1134.64V33.3796H1075.23H1072.89V25Z" stroke="#9001B4" stroke-width="50"/>
<path d="M1368.52 156.286V131.286H1343.52H1301.09H1276.9L1338.47 25H1374V180.035H1368.52V156.286ZM1276.09 132.699V151.359H1273.22H1265.28L1276.09 132.699Z" stroke="#9001B4" stroke-width="50"/>
</svg>
